<svg width="121" height="139" viewBox="0 0 121 139" fill="none" xmlns="http://www.w3.org/2000/svg">
<circle cx="60.5" cy="78.5" r="60.5" fill="#F9F9F9"/>
<path d="M24.3106 85.6172L19.8074 98H100.191L95.6878 85.6172C93.8906 80.6729 89.5391 77.1402 84.3325 76.3941L83.1675 76.2282C88.5733 74.4152 93.2426 70.6754 96.1478 65.5904L97.4977 63.2258H94.7742C89.5439 63.2258 85.2903 58.9723 85.2903 53.7419V42.6774C85.2903 33.2757 80.1216 24.7023 71.7584 20.2828L71.5577 20.1848C69.593 15.7495 65.1545 12.6451 60 12.6451C54.8455 12.6451 50.4071 15.7511 48.4408 20.1848L48.1973 20.3049C39.8784 24.7023 34.7097 33.2757 34.7097 42.6774V53.7419C34.7097 58.9723 30.4562 63.2258 25.2258 63.2258H22.5024L23.8538 65.5904C26.7591 70.6754 31.4283 74.4152 36.8341 76.2282L35.6691 76.3941C30.4625 77.1402 26.1094 80.6729 24.3106 85.6172ZM60 15.8064C65.2304 15.8064 69.4839 20.0599 69.4839 25.2903C69.4839 27.7814 68.5213 30.135 66.7731 31.9211L66.3226 32.3827V34.7742H61.5807V29.7414C63.4158 29.087 64.742 27.3483 64.742 25.2903C64.742 22.6759 62.6144 20.5484 60 20.5484C57.3856 20.5484 55.2581 22.6759 55.2581 25.2903C55.2581 27.3483 56.5842 29.087 58.4194 29.7414V34.7742H53.6774V32.3827L53.227 31.9211C51.4788 30.135 50.5161 27.7814 50.5161 25.2903C50.5161 20.0599 54.7697 15.8064 60 15.8064ZM66.3226 37.9355V41.0968H53.6774V37.9355H66.3226ZM58.4194 25.2903C58.4194 24.4194 59.1291 23.7097 60 23.7097C60.871 23.7097 61.5807 24.4194 61.5807 25.2903C61.5807 26.1612 60.871 26.8709 60 26.8709C59.1291 26.8709 58.4194 26.1612 58.4194 25.2903ZM27.954 66.0899C33.6206 64.8396 37.871 59.7784 37.871 53.7419V42.6774C37.871 35.3369 41.478 28.5796 47.396 24.4905C47.3786 24.756 47.3549 25.02 47.3549 25.2903C47.3549 28.3915 48.4724 31.3331 50.5161 33.6472V34.7742H47.3549V37.9355H50.5161V44.258H69.4839V37.9355H72.6452V34.7742H69.4839V33.6472C71.5277 31.3331 72.6452 28.3915 72.6452 25.2903C72.6452 25.0216 72.6215 24.7592 72.6057 24.4952C78.5347 28.6033 82.1291 35.3495 82.1291 42.6774V53.7419C82.1291 59.7784 86.3794 64.8396 92.046 66.0899C88.2319 71.2017 82.1717 74.2903 75.7085 74.2903H71.0645V70.6975C75.8412 67.2501 78.9678 61.6515 78.9678 55.3226V45.8387H75.8065V55.3226C75.8065 64.0382 68.7157 71.129 60 71.129C51.2843 71.129 44.1936 64.0382 44.1936 55.3226V45.8387H41.0323V55.3226C41.0323 61.6515 44.1588 67.2501 48.9355 70.6975V74.2903H44.2916C37.8283 74.2903 31.7681 71.2017 27.954 66.0899ZM67.9032 72.5437V75.0253L60 80.2936L52.0968 75.0253V72.5437C54.5057 73.6533 57.177 74.2903 60 74.2903C62.8231 74.2903 65.4943 73.6533 67.9032 72.5437ZM50.1415 77.5211L60 84.0935L69.8585 77.5211L83.8836 79.5254C87.9332 80.1039 91.3189 82.8526 92.7178 86.6984L95.6783 94.8387H24.3217L27.2822 86.6984C28.6811 82.8526 32.0653 80.1039 36.1165 79.5254L50.1415 77.5211Z" fill="#172E68"/>
<path d="M61.5807 0H58.4194V7.90322H61.5807V0Z" fill="#172E68"/>
<path d="M44.3521 7.40729L42.1168 9.64264L46.5875 14.1133L48.8228 11.878L44.3521 7.40729Z" fill="#172E68"/>
<path d="M75.6441 7.4109L71.1734 11.8816L73.4087 14.1169L77.8794 9.64624L75.6441 7.4109Z" fill="#172E68"/>
<path d="M15.7419 30.0322C13.1275 30.0322 11 32.1598 11 34.7742C11 37.3886 13.1275 39.5161 15.7419 39.5161C18.3563 39.5161 20.4839 37.3886 20.4839 34.7742C20.4839 32.1598 18.3563 30.0322 15.7419 30.0322ZM15.7419 36.3548C14.871 36.3548 14.1613 35.6451 14.1613 34.7742C14.1613 33.9032 14.871 33.1935 15.7419 33.1935C16.6129 33.1935 17.3226 33.9032 17.3226 34.7742C17.3226 35.6451 16.6129 36.3548 15.7419 36.3548Z" fill="#172E68"/>
<path d="M104.258 30.0322C101.644 30.0322 99.5161 32.1598 99.5161 34.7742C99.5161 37.3886 101.644 39.5161 104.258 39.5161C106.872 39.5161 109 37.3886 109 34.7742C109 32.1598 106.872 30.0322 104.258 30.0322ZM104.258 36.3548C103.387 36.3548 102.677 35.6451 102.677 34.7742C102.677 33.9032 103.387 33.1935 104.258 33.1935C105.129 33.1935 105.839 33.9032 105.839 34.7742C105.839 35.6451 105.129 36.3548 104.258 36.3548Z" fill="#172E68"/>
<path d="M105.839 44.2581H102.677V47.4193H105.839V44.2581Z" fill="#172E68"/>
<path d="M105.839 53.7419H102.677V56.9032H105.839V53.7419Z" fill="#172E68"/>
<path d="M105.839 63.2258H102.677V66.3871H105.839V63.2258Z" fill="#172E68"/>
<path d="M17.3226 44.2581H14.1613V47.4193H17.3226V44.2581Z" fill="#172E68"/>
<path d="M17.3226 53.7419H14.1613V56.9032H17.3226V53.7419Z" fill="#172E68"/>
<path d="M17.3226 63.2258H14.1613V66.3871H17.3226V63.2258Z" fill="#172E68"/>
</svg>
