<svg width="121" height="147" viewBox="0 0 121 147" fill="none" xmlns="http://www.w3.org/2000/svg">
<circle cx="60.5" cy="86.5" r="60.5" fill="#EEF8FF" fill-opacity="0.7"/>
<path d="M101.234 17.0806H90.402V10.8909C90.402 9.28773 89.3234 7.86718 87.7775 7.43854L61.0007 0L34.2238 7.43854C32.6779 7.86718 31.5993 9.28773 31.5993 10.8909C31.5993 12.494 32.6779 13.9146 34.2238 14.3432L37.7891 15.3336V17.0806H20.7673C16.501 17.0806 13.0301 20.5515 13.0301 24.8178V78.9782C13.0301 83.2445 16.501 86.7154 20.7673 86.7154H39.3365V92.9051H33.1468V96H88.8546V92.9051H82.6648V86.7154H101.234C105.5 86.7154 108.971 83.2445 108.971 78.9782V24.8178C108.971 20.5515 105.5 17.0806 101.234 17.0806ZM88.8546 34.1025C89.7087 34.1025 90.402 34.7973 90.402 35.6499V43.3871H87.3071V35.6499C87.3071 34.7973 88.0004 34.1025 88.8546 34.1025ZM35.0517 11.3613C34.8428 11.3025 34.6942 11.1091 34.6942 10.8909C34.6942 10.6727 34.8428 10.4793 35.0517 10.4205L61.0007 3.21248L86.9496 10.4205C87.1586 10.4793 87.3071 10.6727 87.3071 10.8909C87.3071 11.1091 87.1586 11.3025 86.9496 11.3613L61.0007 18.5693L35.0517 11.3613ZM81.1174 16.1924V22.1021L61.0007 27.8508L40.884 22.1036V16.1939L61.0007 21.7817L81.1174 16.1924ZM79.5699 92.9051H42.4314V86.7154H79.5699V92.9051ZM105.876 78.9782C105.876 81.5376 103.794 83.6205 101.234 83.6205H20.7673C18.2078 83.6205 16.1249 81.5376 16.1249 78.9782V74.3359H105.876V78.9782ZM105.876 71.241H16.1249V24.8178C16.1249 22.2584 18.2078 20.1755 20.7673 20.1755H37.7891V24.4372L61.0007 31.0695L84.2122 24.4372V15.3336L87.3071 14.4732V31.2923C85.5105 31.9329 84.2122 33.6351 84.2122 35.6499V46.482H93.4969V35.6499C93.4969 33.6351 92.1986 31.9329 90.402 31.2923V20.1755H101.234C103.794 20.1755 105.876 22.2584 105.876 24.8178V71.241Z" fill="#172E68"/>
<path d="M56.3577 42.0424V60.2047L69.9798 51.1243L56.3577 42.0424ZM59.4526 47.8267L64.3997 51.1243L59.4526 54.4234V47.8267Z" fill="#172E68"/>
<path d="M61 34.1025C51.6148 34.1025 43.9782 41.7391 43.9782 51.1243C43.9782 60.5095 51.6148 68.1461 61 68.1461C70.3852 68.1461 78.0218 60.5095 78.0218 51.1243C78.0218 41.7391 70.3852 34.1025 61 34.1025ZM61 65.0512C53.3201 65.0512 47.0731 58.8042 47.0731 51.1243C47.0731 43.4459 53.3201 37.1974 61 37.1974C68.6799 37.1974 74.9269 43.4459 74.9269 51.1243C74.9269 58.8042 68.6799 65.0512 61 65.0512Z" fill="#172E68"/>
<path d="M70.2847 77.4308H51.7154V80.5257H70.2847V77.4308Z" fill="#172E68"/>
<path d="M90.4013 49.5768H87.3065V52.6718H90.4013V49.5768Z" fill="#172E68"/>
<path d="M84.2116 49.5768H81.1167V52.6718H84.2116V49.5768Z" fill="#172E68"/>
<path d="M40.8833 49.5768H37.7884V52.6718H40.8833V49.5768Z" fill="#172E68"/>
<path d="M34.6935 49.5768H31.5987V52.6718H34.6935V49.5768Z" fill="#172E68"/>
<path d="M28.5038 49.5768H25.4089V52.6718H28.5038V49.5768Z" fill="#172E68"/>
<path d="M96.5911 49.5768H93.4962V52.6718H96.5911V49.5768Z" fill="#172E68"/>
</svg>
