<svg width="130" height="130" viewBox="0 0 121 137" fill="none" xmlns="http://www.w3.org/2000/svg">
<circle cx="60.5" cy="76.5" r="60.5" fill="#FFF8E3"/>
<path d="M60.9139 76.7953C56.8623 77.5328 53.6137 80.4392 52.4296 84.3818L48.806 96.4648H109L105.376 84.3818C104.192 80.4392 100.942 77.5328 96.8921 76.7969L86.6824 74.9391V74.1332C90.5005 71.9161 93.2949 68.1337 94.1678 63.6621C96.9964 63.0771 99.1295 60.5674 99.1295 57.5677V42.2002C99.1295 37.8578 96.2853 34.0707 92.1607 32.8385L91.3827 32.0605C89.1609 29.8387 86.4879 28.2362 83.5706 27.326V10.8912C83.5706 8.31775 81.4764 6.22353 78.903 6.22353H56.5761C55.2909 2.60299 51.8415 0 47.7853 0C43.7291 0 40.2797 2.60299 38.9946 6.22353H16.6677C14.0942 6.22353 12 8.31775 12 10.8912V57.5677C12 60.1411 14.0942 62.2353 16.6677 62.2353H35.3383V68.4589H32.2265V71.5706H63.3442V68.4589H60.2324V62.2353H60.8267C61.6187 62.9277 62.5709 63.4412 63.6382 63.6621C64.5111 68.1337 67.307 71.9161 71.1236 74.1332V74.9391L60.9139 76.7953ZM94.4618 60.2469V54.89C95.3876 55.4299 96.0177 56.4226 96.0177 57.5692C96.0177 58.7159 95.3876 59.707 94.4618 60.2469ZM57.1206 14.003V9.3353H78.903C79.7618 9.3353 80.4589 10.0339 80.4589 10.8912V26.6492C79.5954 26.5309 78.7225 26.45 77.8341 26.45C73 26.45 68.5906 28.2642 65.2159 31.2281L64.3648 28.2486C63.5449 25.3765 61.1099 23.2029 58.1631 22.7112L54.0089 22.0204V20.9251C55.9957 19.1498 57.1206 16.6682 57.1206 14.003ZM57.1206 68.4589H38.45V62.2353H57.1206V68.4589ZM58.6765 45.6076V49.7883H55.5647V52.9H58.6765V57.5677C58.6765 58.1076 58.7667 58.6226 58.8974 59.1236H16.6677C15.8088 59.1236 15.1118 58.4265 15.1118 57.5677V52.9H52.453V49.7883H15.1118V10.8912C15.1118 10.0339 15.8088 9.3353 16.6677 9.3353H38.45V14.003C38.45 16.6682 39.5749 19.1498 41.5618 20.9251V22.0204L37.4076 22.7128C34.4592 23.2029 32.0258 25.3765 31.2058 28.2486L28.6075 37.3412H60.5793C59.372 39.8477 58.6765 42.6452 58.6765 45.6076ZM32.7337 34.2279L34.1978 29.1028C34.6879 27.3804 36.1504 26.0766 37.9179 25.781L44.6736 24.6561V19.4174L44.0559 18.9507C42.4704 17.7526 41.5618 15.9494 41.5618 14.003V9.3353C41.5618 5.90302 44.353 3.11177 47.7853 3.11177C51.2176 3.11177 54.0089 5.90302 54.0089 9.3353V14.003C54.0089 15.9494 53.1002 17.7526 51.5148 18.9507L50.8971 19.4174V24.6561L57.6527 25.7825C59.4202 26.0766 60.8812 27.3804 61.3728 29.1044L62.7342 33.8607C62.6393 33.9821 62.5507 34.105 62.4589 34.2279H32.7337ZM63.3442 60.2454C62.4184 59.707 61.7883 58.7144 61.7883 57.5677C61.7883 56.421 62.4184 55.4284 63.3442 54.8885V60.2454ZM63.3442 49.7883V51.5651C62.7903 51.7082 62.2706 51.9276 61.7883 52.2092V45.6076C61.7883 36.7593 68.9873 29.5618 77.8341 29.5618C82.1221 29.5618 86.1518 31.2313 89.1812 34.2621L90.5534 35.6344L90.9735 35.7386C93.9437 36.4824 96.0177 39.1383 96.0177 42.2002V52.2092C95.5354 51.9276 95.0157 51.7082 94.4618 51.5651V49.7883H89.5266C85.3101 49.7883 81.2819 47.775 78.7521 44.4034L77.5167 42.751L74.4236 45.8441C71.8797 48.388 68.4972 49.7883 64.9 49.7883H63.3442ZM66.4559 60.6795V52.8285C70.2974 52.4722 73.8635 50.8043 76.6236 48.0426L77.2289 47.4373C80.3515 50.8805 84.8449 52.8985 89.5266 52.8985H91.3501V60.6779C91.3501 67.5409 85.766 73.125 78.903 73.125C72.04 73.125 66.4559 67.5425 66.4559 60.6795ZM74.366 75.5599C75.8037 75.9987 77.3253 76.2383 78.903 76.2383C80.4807 76.2383 82.0023 75.9987 83.4399 75.5599L78.903 78.9611L74.366 75.5599ZM76.5349 81.074L73.3609 84.248L71.3009 78.0696L72.2905 77.8906L76.5349 81.074ZM85.517 77.8922L86.5066 78.0711L84.4466 84.2495L81.2726 81.0755L85.517 77.8922ZM72.0011 90.011L78.903 83.106L85.808 90.011L89.5997 78.6344L96.3367 79.8588C99.2275 80.3832 101.55 82.4603 102.395 85.2764L104.818 93.353H52.9882L55.4123 85.2764C56.2571 82.4603 58.5785 80.3832 61.4724 79.8588L68.2094 78.6344L72.0011 90.011Z" fill="#172E68"/>
<path d="M64.9001 12.4471H61.7883V15.5588H64.9001V12.4471Z" fill="#172E68"/>
<path d="M71.1235 12.4471H68.0118V15.5588H71.1235V12.4471Z" fill="#172E68"/>
<path d="M77.3471 12.4471H74.2354V15.5588H77.3471V12.4471Z" fill="#172E68"/>
<path d="M21.3353 43.5648H18.2235V46.6765H21.3353V43.5648Z" fill="#172E68"/>
<path d="M27.5588 43.5648H24.4471V46.6765H27.5588V43.5648Z" fill="#172E68"/>
<path d="M33.7824 43.5648H30.6706V46.6765H33.7824V43.5648Z" fill="#172E68"/>
</svg>
