<svg width="713" height="582" viewBox="0 0 713 582" fill="none" xmlns="http://www.w3.org/2000/svg">
<g clip-path="url(#clip0)">
<path d="M324.611 480.249C358.686 480.249 386.309 474.139 386.309 466.602C386.309 459.065 358.686 452.955 324.611 452.955C290.537 452.955 262.913 459.065 262.913 466.602C262.913 474.139 290.537 480.249 324.611 480.249Z" fill="black"/>
<path d="M324.611 466.602L289.955 575.142" stroke="black" stroke-width="4" stroke-miterlimit="10" stroke-linecap="round"/>
<path d="M324.611 466.602L359.268 575.142" stroke="black" stroke-width="4" stroke-miterlimit="10" stroke-linecap="round"/>
<path d="M301.334 539.503L339.97 514.714" stroke="black" stroke-width="2" stroke-miterlimit="10" stroke-linecap="round"/>
<path d="M309.096 514.714L347.742 539.503" stroke="black" stroke-width="2" stroke-miterlimit="10" stroke-linecap="round"/>
<path d="M385.332 349.11C385.175 353.923 385.244 370.779 384.452 377.989" stroke="#1F161E" stroke-miterlimit="10" stroke-linecap="round"/>
<path d="M186.844 135.942C186.844 132.522 184.074 129.75 180.656 129.75C177.238 129.75 174.467 132.522 174.467 135.942V157.318C174.467 160.738 177.238 163.51 180.656 163.51C184.074 163.51 186.844 160.738 186.844 157.318V135.942Z" fill="black"/>
<path d="M180.656 199.443C187.513 199.443 193.072 193.88 193.072 187.018C193.072 180.157 187.513 174.594 180.656 174.594C173.799 174.594 168.24 180.157 168.24 187.018C168.24 193.88 173.799 199.443 180.656 199.443Z" fill="#FBDC8E"/>
<path d="M595.737 334.573H601.603C602.219 334.57 602.809 334.324 603.245 333.888C603.681 333.452 603.927 332.861 603.929 332.244V296.165C603.93 295.86 603.87 295.557 603.753 295.275C603.635 294.992 603.462 294.736 603.245 294.522L595.835 287.106C595.619 286.89 595.364 286.718 595.082 286.6C594.8 286.482 594.497 286.422 594.192 286.422H572.303C571.687 286.424 571.096 286.67 570.661 287.106C570.225 287.543 569.979 288.133 569.976 288.75V292.233" fill="#FBDC8E"/>
<path d="M86.0899 420.662C104.665 424.183 101.351 535.121 65.6966 528.41C32.0271 522.012 63.4285 416.347 86.0899 420.662Z" fill="black"/>
<path d="M4.53619 434.358C19.3179 425.983 81.192 503.894 52.8896 519.918C26.1515 535.121 -13.4619 444.571 4.53619 434.358Z" fill="#FBDC8E"/>
<path d="M79.8624 582H42.5366C41.0331 582 39.5827 581.444 38.4626 580.441C37.3425 579.437 36.6315 578.056 36.4655 576.561L31.7533 534.221C31.6512 533.362 31.7319 532.491 31.9903 531.666C32.2487 530.841 32.6788 530.08 33.2523 529.433C33.8258 528.786 34.5298 528.268 35.3178 527.913C36.1059 527.558 36.9602 527.374 37.8244 527.373H84.379C85.2363 527.373 86.084 527.554 86.8668 527.904C87.6496 528.254 88.3501 528.765 88.9227 529.403C89.4953 530.042 89.9272 530.794 90.1903 531.61C90.4535 532.427 90.542 533.289 90.4501 534.142L85.9432 576.482C85.793 577.993 85.0878 579.393 83.9643 580.413C82.8408 581.432 81.379 581.998 79.8624 582Z" fill="#969696"/>
<path d="M96.5798 377.461C110.726 381.569 99.8842 467.198 72.7941 459.314C47.2194 451.879 79.3638 372.452 96.5798 377.461Z" fill="#2F2665"/>
<path d="M119.906 445.588C129.682 454.021 89.9124 518.529 71.1224 502.329C53.3785 487.097 107.969 435.336 119.906 445.588Z" fill="#FBDC8E"/>
<path d="M61.2972 386.363C82.4726 386.363 101.859 521.659 61.2972 521.659C22.9938 521.659 35.5172 386.363 61.2972 386.363Z" fill="#30D2EF"/>
<path d="M98.4568 518.216H23.9616C21.7749 518.216 20.0023 519.99 20.0023 522.178V529.398C20.0023 531.586 21.7749 533.36 23.9616 533.36H98.4568C100.644 533.36 102.416 531.586 102.416 529.398V522.178C102.416 519.99 100.644 518.216 98.4568 518.216Z" fill="#D8D8D8"/>
<path d="M585.882 292.233H564.375C564.03 292.233 563.688 292.301 563.37 292.433C563.051 292.566 562.762 292.76 562.519 293.004C562.275 293.248 562.082 293.539 561.951 293.858C561.82 294.177 561.753 294.519 561.755 294.864V337.713C561.755 338.409 562.03 339.077 562.521 339.57C563.012 340.064 563.679 340.342 564.375 340.345H593.107C593.803 340.342 594.469 340.064 594.96 339.57C595.451 339.077 595.727 338.409 595.727 337.713V302.104C595.728 301.759 595.662 301.417 595.531 301.098C595.4 300.779 595.208 300.489 594.965 300.245L587.73 293.005C587.241 292.513 586.576 292.235 585.882 292.233Z" fill="#D8D8D8"/>
<path d="M595.737 301.076H588.434C588.045 301.076 587.672 300.922 587.397 300.647C587.122 300.371 586.968 299.998 586.968 299.609V292.233" fill="#969696"/>
<path d="M603.959 295.275H596.656C596.265 295.273 595.891 295.116 595.615 294.84C595.339 294.563 595.182 294.189 595.18 293.798V286.422" fill="#64CCC4"/>
<path d="M561.784 243.25H511.377C509.741 243.25 508.415 244.577 508.415 246.214V262.688C508.415 264.326 509.741 265.653 511.377 265.653H561.784C563.42 265.653 564.746 264.326 564.746 262.688V246.214C564.746 244.577 563.42 243.25 561.784 243.25Z" fill="#A1ECFC"/>
<path d="M536.571 281.012L543.355 260.448H529.786L536.571 281.012Z" fill="#A1ECFC"/>
<path d="M523.128 249.218L517.439 259.069H528.808L523.128 249.218Z" fill="white"/>
<path d="M550.023 259.069L555.713 249.218H544.333L550.023 259.069Z" fill="white"/>
<path d="M536.571 258.423C538.93 258.423 540.843 256.509 540.843 254.148C540.843 251.787 538.93 249.873 536.571 249.873C534.211 249.873 532.299 251.787 532.299 254.148C532.299 256.509 534.211 258.423 536.571 258.423Z" fill="white"/>
<path d="M532.181 195.774H499.098C497.668 195.774 496.508 196.935 496.508 198.366V218.382C496.508 219.814 497.668 220.975 499.098 220.975H532.181C533.612 220.975 534.772 219.814 534.772 218.382V198.366C534.772 196.935 533.612 195.774 532.181 195.774Z" fill="#D8D8D8"/>
<path d="M497.71 196.566L515.64 208.374" stroke="#969696" stroke-width="0.82" stroke-linecap="round" stroke-linejoin="round"/>
<path d="M534.772 195.774L515.64 208.374" stroke="#969696" stroke-width="0.82" stroke-linecap="round" stroke-linejoin="round"/>
<path d="M534.772 201.252C537.796 201.252 540.247 198.8 540.247 195.774C540.247 192.748 537.796 190.296 534.772 190.296C531.748 190.296 529.297 192.748 529.297 195.774C529.297 198.8 531.748 201.252 534.772 201.252Z" fill="#FBDC8E"/>
<path d="M535.787 197.746H535.124V193.351L533.794 193.839V193.24L535.683 192.531H535.787V197.746Z" fill="white"/>
<path d="M726.798 211.143H584.064C583.4 211.143 582.862 211.682 582.862 212.346V213.09C582.862 213.754 583.4 214.293 584.064 214.293H726.798C727.462 214.293 728 213.754 728 213.09V212.346C728 211.682 727.462 211.143 726.798 211.143Z" fill="#D8D8D8"/>
<path d="M644.354 148.591H635.683C634.3 148.591 633.18 149.713 633.18 151.096V208.638C633.18 210.022 634.3 211.143 635.683 211.143H644.354C645.736 211.143 646.857 210.022 646.857 208.638V151.096C646.857 149.713 645.736 148.591 644.354 148.591Z" fill="#969696"/>
<path d="M651.618 163.256H648.939C647.789 163.256 646.857 164.189 646.857 165.34V209.059C646.857 210.21 647.789 211.143 648.939 211.143H651.618C652.768 211.143 653.7 210.21 653.7 209.059V165.34C653.7 164.189 652.768 163.256 651.618 163.256Z" fill="#D8D8D8"/>
<path d="M658.53 163.256H655.714C654.602 163.256 653.7 164.158 653.7 165.271V209.128C653.7 210.241 654.602 211.143 655.714 211.143H658.53C659.642 211.143 660.544 210.241 660.544 209.128V165.271C660.544 164.158 659.642 163.256 658.53 163.256Z" fill="#969696"/>
<path d="M663.492 166.683L661.182 167.744C660.103 168.24 659.629 169.518 660.125 170.598L678.297 210.206C678.792 211.286 680.069 211.76 681.149 211.264L683.459 210.203C684.538 209.707 685.012 208.429 684.516 207.349L666.344 167.741C665.849 166.661 664.572 166.187 663.492 166.683Z" fill="#D8D8D8"/>
<path d="M640.014 195.314C642.125 195.314 643.836 193.602 643.836 191.489C643.836 189.377 642.125 187.664 640.014 187.664C637.902 187.664 636.191 189.377 636.191 191.489C636.191 193.602 637.902 195.314 640.014 195.314Z" fill="#D8D8D8"/>
<path d="M643.474 197.603H636.553C636.045 197.603 635.634 198.015 635.634 198.523C635.634 199.031 636.045 199.443 636.553 199.443H643.474C643.982 199.443 644.393 199.031 644.393 198.523C644.393 198.015 643.982 197.603 643.474 197.603Z" fill="#D8D8D8"/>
<path d="M643.474 202.309H636.553C636.045 202.309 635.634 202.721 635.634 203.228C635.634 203.736 636.045 204.148 636.553 204.148H643.474C643.982 204.148 644.393 203.736 644.393 203.228C644.393 202.721 643.982 202.309 643.474 202.309Z" fill="#D8D8D8"/>
<path d="M573.437 296.654H566.516C566.008 296.654 565.597 297.066 565.597 297.574C565.597 298.082 566.008 298.494 566.516 298.494H573.437C573.945 298.494 574.356 298.082 574.356 297.574C574.356 297.066 573.945 296.654 573.437 296.654Z" fill="#969696"/>
<path d="M573.437 301.076H566.516C566.008 301.076 565.597 301.488 565.597 301.996C565.597 302.504 566.008 302.915 566.516 302.915H573.437C573.945 302.915 574.356 302.504 574.356 301.996C574.356 301.488 573.945 301.076 573.437 301.076Z" fill="#969696"/>
<path d="M591.386 308.638H566.115C565.607 308.638 565.196 309.05 565.196 309.558C565.196 310.066 565.607 310.478 566.115 310.478H591.386C591.894 310.478 592.305 310.066 592.305 309.558C592.305 309.05 591.894 308.638 591.386 308.638Z" fill="#969696"/>
<path d="M591.386 312.982H566.115C565.607 312.982 565.196 313.394 565.196 313.902C565.196 314.409 565.607 314.821 566.115 314.821H591.386C591.894 314.821 592.305 314.409 592.305 313.902C592.305 313.394 591.894 312.982 591.386 312.982Z" fill="#969696"/>
<path d="M591.386 317.326H566.115C565.607 317.326 565.196 317.737 565.196 318.245C565.196 318.753 565.607 319.165 566.115 319.165H591.386C591.894 319.165 592.305 318.753 592.305 318.245C592.305 317.737 591.894 317.326 591.386 317.326Z" fill="#969696"/>
<path d="M650.992 170.485C650.992 170.091 650.673 169.771 650.279 169.771C649.884 169.771 649.565 170.091 649.565 170.485V203.903C649.565 204.298 649.884 204.618 650.279 204.618C650.673 204.618 650.992 204.298 650.992 203.903V170.485Z" fill="#969696"/>
<path d="M620.969 212.718H614.849C613.505 212.718 612.415 213.808 612.415 215.154C612.415 216.499 613.505 217.59 614.849 217.59H620.969C622.314 217.59 623.404 216.499 623.404 215.154C623.404 213.808 622.314 212.718 620.969 212.718Z" fill="#D8D8D8"/>
<path d="M696.012 212.718H689.892C688.548 212.718 687.458 213.808 687.458 215.154C687.458 216.499 688.548 217.59 689.892 217.59H696.012C697.356 217.59 698.446 216.499 698.446 215.154C698.446 213.808 697.356 212.718 696.012 212.718Z" fill="#D8D8D8"/>
<path d="M465.008 217.482H429.315C422.836 217.482 417.584 222.738 417.584 229.221V246.645C417.584 253.128 422.836 258.384 429.315 258.384H465.008C471.488 258.384 476.74 253.128 476.74 246.645V229.221C476.74 222.738 471.488 217.482 465.008 217.482Z" fill="#D8D8D8"/>
<path d="M438.72 224.066H429.824V251.8H438.72V224.066Z" fill="#172E68"/>
<path d="M451.615 242.516H442.719V251.81H451.615V242.516Z" fill="#172E68"/>
<path d="M464.5 234.69H455.604V251.8H464.5V234.69Z" fill="#172E68"/>
<path d="M180.656 149.56C175.739 149.559 170.87 150.527 166.328 152.408C161.785 154.29 157.657 157.049 154.18 160.528C150.703 164.006 147.945 168.136 146.063 172.681C144.181 177.227 143.213 182.098 143.213 187.018H218.099C218.099 182.098 217.13 177.227 215.249 172.681C213.367 168.136 210.609 164.006 207.131 160.528C203.654 157.049 199.527 154.29 194.984 152.408C190.441 150.527 185.572 149.559 180.656 149.56Z" fill="#2F2665"/>
<path d="M180.656 136.881V0.978271" stroke="black" stroke-width="2" stroke-linecap="round" stroke-linejoin="round"/>
<path d="M474.335 562.2C474.335 564.518 472.976 579.143 475.684 580.493C478.392 581.843 508.161 582.665 509.51 581.305C510.859 579.946 511.671 577.109 510.488 576.297C509.305 575.485 497.779 573.186 496.214 572.1C494.65 571.014 492.49 565.252 493.281 562.2" fill="#1F161E"/>
<path d="M385.332 371.014L402.088 364.997C401.365 334.406 394.218 266.054 384.071 255.889C381.685 253.512 334.505 249.364 326.088 249.364C275.857 249.364 260.958 255.097 257.175 258.893C245.443 270.632 241.787 325.025 241.787 344.072C241.787 363.119 295.556 373 295.556 373L358.584 377.333C358.584 377.333 372.408 378.762 384.364 379.466C384.628 375.798 385.332 371.014 385.332 371.014Z" fill="#30D2EF"/>
<path d="M435.259 388.75C439.844 387.39 485.441 379.945 495.374 389.728C505.306 399.511 536.571 539.768 536.571 542.996H511.397L477.415 469.811" fill="#1F161E"/>
<path d="M269.248 376.277C268.105 382 261.232 388.144 261.232 419.321C261.232 462.434 296.524 463.344 309.194 463.344C348.671 463.344 412.539 451.605 416.851 449.452C419.715 454.246 472.438 561.955 472.683 564.362H496.957C496.957 564.362 481.912 403.219 454.763 384.945C445.945 379.075 289.495 372.794 269.248 376.277Z" fill="#ECDA9B"/>
<path d="M411.395 344.757C405.021 344.757 399.762 346.273 385.332 349.11L384.579 376.737C398.266 371.219 401.443 363.549 405.412 363.549C415.325 363.549 420.507 368.666 426.363 368.666C430.449 368.666 437.801 365.457 437.801 361.094C437.801 351.957 419.295 344.757 411.395 344.757Z" fill="#F8CDBA"/>
<path d="M512.824 541.059C512.824 543.387 511.465 558.003 514.173 559.363C516.881 560.722 546.65 561.525 547.999 560.174C549.348 558.824 550.16 555.978 548.977 555.166C547.794 554.354 536.268 552.045 534.704 550.959C533.139 549.873 530.979 544.111 531.771 541.059" fill="#1F161E"/>
<path d="M334.974 255.87C334.974 259.558 313.574 259.666 313.574 255.87V225.876H334.974V255.87Z" fill="#F8CDBA"/>
<path d="M328.004 235.766C326.049 235.766 313.574 241.284 313.574 244.365V228.087C316.683 228.087 328.004 235.766 328.004 235.766Z" fill="#1F161E"/>
<path d="M332.139 237.038C346.447 237.038 358.046 225.431 358.046 211.113C358.046 196.796 346.447 185.189 332.139 185.189C317.831 185.189 306.232 196.796 306.232 211.113C306.232 225.431 317.831 237.038 332.139 237.038Z" fill="#F8CDBA"/>
<path d="M358.877 190.765C355.671 195.862 348.964 198.2 341.7 198.2C335.512 198.2 326.498 196.4 320.085 200.059C316.614 202.015 312.635 206.467 311.834 215.379C311.834 216.905 310.103 222.823 310.103 224.731C310.103 226.032 308.637 226.883 306.193 226.883C304.932 226.883 302.439 224.839 302.439 221.718C302.439 218.108 303.876 216.827 303.876 213.765C303.876 210.703 300.132 207.758 300.132 199.247C300.132 186.989 307.953 179.437 313.486 179.437C318.531 179.437 320.114 180.611 320.75 181.109C320.75 169.967 335.414 164.88 341.231 164.88C347.879 164.88 351.007 167.609 351.007 171.082C351.007 176.619 348.368 181.325 347.028 182.381C350.06 179.652 353.998 178.149 358.076 178.165C365.691 178.165 368.253 183.174 368.253 186.598C368.253 194.042 359.327 200.939 356.003 200.939C355.167 199.169 354.186 197.471 353.07 195.862" fill="#1F161E"/>
<path d="M312.635 220.065C315.686 220.065 318.159 217.59 318.159 214.537C318.159 211.485 315.686 209.01 312.635 209.01C309.585 209.01 307.112 211.485 307.112 214.537C307.112 217.59 309.585 220.065 312.635 220.065Z" fill="#F8CDBA"/>
<path d="M358.3 215.868C360.665 215.868 362.582 214.869 362.582 213.637C362.582 212.406 360.665 211.407 358.3 211.407C355.936 211.407 354.018 212.406 354.018 213.637C354.018 214.869 355.936 215.868 358.3 215.868Z" fill="#FA9E9F"/>
<path d="M331.367 215.868C333.732 215.868 335.649 214.869 335.649 213.637C335.649 212.406 333.732 211.407 331.367 211.407C329.002 211.407 327.085 212.406 327.085 213.637C327.085 214.869 329.002 215.868 331.367 215.868Z" fill="#FA9E9F"/>
<path d="M347.84 209.01C348.641 210.155 352.728 214.958 348.417 216.905" stroke="#1F161E" stroke-miterlimit="10" stroke-linecap="round"/>
<path d="M339.784 222.51C338.494 222.51 336.509 220.906 335.463 219.468" stroke="#1F161E" stroke-miterlimit="10" stroke-linecap="round"/>
<path d="M373.943 292.135C375.898 296.293 385.332 336.402 385.332 349.11" stroke="#1F161E" stroke-miterlimit="10" stroke-linecap="round"/>
<path d="M241.787 340.844C241.787 385.933 242.207 399.012 260.293 399.012C301.979 399.012 364.997 364.772 376.23 364.772C386.153 364.772 391.334 369.899 397.19 369.899C401.267 369.899 408.619 366.68 408.619 362.327C408.619 353.18 390.112 345.98 382.223 345.98C364.459 345.98 293.572 363.119 291.841 363.119C290.111 363.119 287.198 362.366 287.198 359.45C287.198 354.158 290.658 341.929 291.108 340.863L241.787 340.844Z" fill="#F8CDBA"/>
<path d="M301.52 301.517C300.327 304.95 291.03 340.433 289.955 344.757" stroke="#1F161E" stroke-miterlimit="10" stroke-linecap="round"/>
<path d="M654.481 575.961C655.184 578.636 657.921 580.235 660.594 579.531C663.268 578.828 664.865 576.089 664.163 573.414L614.109 382.901C613.406 380.225 610.669 378.627 607.996 379.33C605.322 380.033 603.725 382.772 604.427 385.448L654.481 575.961Z" fill="#969696"/>
<path d="M603.93 385.456C604.633 382.78 603.036 380.041 600.362 379.338C597.688 378.635 594.951 380.233 594.248 382.909L544.195 573.422C543.492 576.097 545.09 578.836 547.763 579.539C550.437 580.243 553.174 578.644 553.877 575.969L603.93 385.456Z" fill="#969696"/>
<path d="M534.862 385.455C535.565 382.779 533.968 380.04 531.294 379.337C528.62 378.634 525.883 380.232 525.18 382.908L475.127 573.421C474.424 576.096 476.022 578.835 478.695 579.538C481.369 580.242 484.106 578.643 484.809 575.968L534.862 385.455Z" fill="#D8D8D8"/>
<path d="M584.542 572.444C585.234 575.128 587.968 576.742 590.649 576.051C593.331 575.359 594.944 572.623 594.253 569.94L545.039 378.863C544.348 376.179 541.614 374.565 538.933 375.256C536.251 375.948 534.638 378.684 535.329 381.367L584.542 572.444Z" fill="#D8D8D8"/>
<path d="M252.894 385.46C253.597 382.784 251.999 380.045 249.326 379.342C246.652 378.639 243.915 380.237 243.212 382.913L193.159 573.426C192.456 576.101 194.054 578.84 196.727 579.543C199.401 580.247 202.138 578.648 202.841 575.973L252.894 385.46Z" fill="#969696"/>
<path d="M302.594 575.973C303.297 578.648 306.034 580.247 308.708 579.544C311.381 578.84 312.979 576.101 312.276 573.426L262.223 382.913C261.52 380.238 258.783 378.639 256.109 379.342C253.436 380.046 251.838 382.785 252.541 385.46L302.594 575.973Z" fill="#969696"/>
<path d="M634.744 369.928H150.652C148.207 369.928 146.224 371.912 146.224 374.36V380.317C146.224 382.765 148.207 384.749 150.652 384.749H634.744C637.19 384.749 639.173 382.765 639.173 380.317V374.36C639.173 371.912 637.19 369.928 634.744 369.928Z" fill="#D8D8D8"/>
<path d="M181.356 385.463C182.059 382.787 180.462 380.048 177.788 379.345C175.114 378.641 172.377 380.24 171.674 382.915L121.621 573.428C120.918 576.104 122.516 578.843 125.189 579.546C127.863 580.25 130.6 578.651 131.303 575.976L181.356 385.463Z" fill="#D8D8D8"/>
<path d="M231.056 575.973C231.759 578.649 234.496 580.247 237.17 579.544C239.843 578.841 241.441 576.102 240.738 573.426L190.685 382.913C189.982 380.238 187.245 378.639 184.571 379.343C181.897 380.046 180.3 382.785 181.003 385.46L231.056 575.973Z" fill="#D8D8D8"/>
<path d="M508.64 369.928H418.2L434.585 313.54C434.994 312.179 435.832 310.988 436.974 310.143C438.116 309.298 439.5 308.846 440.92 308.854H517.664C518.672 308.837 519.669 309.057 520.578 309.495C521.486 309.933 522.279 310.577 522.895 311.376C523.51 312.175 523.93 313.107 524.122 314.098C524.313 315.088 524.271 316.11 523.999 317.081L508.64 369.928Z" fill="black"/>
<path d="M474.521 344.923C477.577 344.923 480.054 342.444 480.054 339.386C480.054 336.328 477.577 333.849 474.521 333.849C471.465 333.849 468.987 336.328 468.987 339.386C468.987 342.444 471.465 344.923 474.521 344.923Z" fill="white"/>
<path d="M428.944 365.966H365.486V369.928H428.944V365.966Z" fill="black"/>
</g>
<defs>
<clipPath id="clip0">
<rect width="728" height="582" fill="white"/>
</clipPath>
</defs>
</svg>
