<svg width="177" height="49" viewBox="0 0 177 49" fill="none" xmlns="http://www.w3.org/2000/svg">
<path d="M20.2572 4.2428L4.24264 20.2574C1.89949 22.6005 1.89949 26.3995 4.24264 28.7426L20.2572 44.7572C22.6003 47.1003 26.3993 47.1003 28.7425 44.7572L44.757 28.7426C47.1002 26.3995 47.1002 22.6005 44.757 20.2574L28.7425 4.24281C26.3993 1.89966 22.6003 1.89966 20.2572 4.2428Z" fill="#30D2EF"/>
<path d="M36.49 24.52C36.489 25.0027 36.459 25.485 36.4 25.9641C36.5511 25.9954 36.6992 26.0392 36.843 26.095C36.9096 25.5727 36.943 25.0465 36.943 24.52C36.9431 23.0272 36.672 21.5469 36.143 20.1511C36.0237 20.2518 35.8963 20.3424 35.762 20.4221C36.2434 21.7347 36.4898 23.1218 36.49 24.52V24.52Z" stroke="#07345E"/>
<path d="M21.75 12.92C21.7347 12.8043 21.7267 12.6877 21.726 12.571C21.726 12.532 21.726 12.495 21.732 12.457C19.6343 12.9494 17.7015 13.9811 16.125 15.45C16.2646 15.5179 16.3984 15.5971 16.525 15.687C18.0063 14.34 19.8034 13.3884 21.75 12.92Z" stroke="#07345E"/>
<path d="M12.621 24.5211C12.6197 23.1042 12.8713 21.6985 13.364 20.3701C13.2318 20.2836 13.107 20.1863 12.991 20.079C12.2357 22.0386 11.9947 24.1589 12.291 26.238C12.4342 26.1789 12.582 26.1318 12.733 26.097C12.6612 25.5747 12.6237 25.0483 12.621 24.5211V24.5211Z" stroke="#07345E"/>
<path d="M27.361 12.92C29.3277 13.3949 31.1411 14.363 32.6299 15.733C32.754 15.6398 32.8854 15.5569 33.0229 15.485C31.44 13.9978 29.4935 12.9534 27.379 12.457C27.379 12.495 27.3849 12.532 27.3849 12.571C27.3841 12.6877 27.3761 12.8043 27.361 12.92Z" stroke="#07345E"/>
<path d="M14.749 31.3199C14.6144 31.3941 14.4739 31.457 14.329 31.5079C15.5173 33.2409 17.124 34.6457 19 35.592C19.042 35.444 19.0893 35.2987 19.142 35.156C17.3841 34.2586 15.8751 32.9409 14.749 31.3199Z" stroke="#07345E"/>
<path d="M29.916 35.183C29.966 35.327 30.016 35.473 30.05 35.623C31.9953 34.6548 33.6541 33.1953 34.862 31.389C34.7191 31.3365 34.5806 31.2726 34.448 31.1979C33.302 32.8911 31.7419 34.2631 29.916 35.183V35.183Z" stroke="#07345E"/>
<path d="M32.283 16.0389C32.3904 15.9273 32.5068 15.8246 32.631 15.7319C31.1422 14.3618 29.3288 13.3937 27.362 12.9189C27.3433 13.0706 27.3122 13.2204 27.269 13.3669C29.1381 13.8227 30.8623 14.7416 32.283 16.0389V16.0389Z" stroke="#07345E"/>
<path d="M29.748 34.753C29.8093 34.8937 29.8657 35.0374 29.917 35.184C31.7429 34.264 33.303 32.8922 34.449 31.199C34.3148 31.1233 34.187 31.0366 34.067 30.94C32.9724 32.5553 31.4865 33.8671 29.748 34.753V34.753Z" stroke="#07345E"/>
<path d="M13.077 24.52C13.0759 23.1791 13.3108 21.8485 13.771 20.5891C13.6295 20.527 13.4934 20.4533 13.364 20.369C12.6856 22.1969 12.4672 24.1637 12.728 26.096C12.8765 26.0608 13.0277 26.0377 13.18 26.027C13.1128 25.5275 13.0784 25.024 13.077 24.52V24.52Z" stroke="#07345E"/>
<path d="M21.843 13.365C21.7998 13.2184 21.7687 13.0686 21.7499 12.917C19.8046 13.386 18.0088 14.338 16.5289 15.6849C16.6566 15.7749 16.7767 15.8753 16.8879 15.985C18.2974 14.7151 19.9999 13.8148 21.843 13.365Z" stroke="#07345E"/>
<path d="M15.131 31.063C15.0107 31.1591 14.8825 31.245 14.748 31.3199C15.874 32.9409 17.383 34.2587 19.141 35.156C19.1943 35.0107 19.2533 34.8686 19.318 34.73C17.6444 33.867 16.207 32.6082 15.131 31.063V31.063Z" stroke="#07345E"/>
<path d="M36.034 24.52C36.0329 24.986 36.0035 25.4515 35.946 25.9139C36.0985 25.9186 36.2503 25.9357 36.4 25.965C36.6319 24.0937 36.4153 22.194 35.768 20.423C35.6355 20.5011 35.4967 20.5679 35.353 20.6229C35.8049 21.8725 36.0353 23.1913 36.034 24.52V24.52Z" stroke="#07345E"/>
<path d="M13.38 31.218C12.8415 31.2186 12.3189 31.0357 11.8981 30.6997C11.4773 30.3637 11.1834 29.8945 11.0648 29.3693C10.9462 28.844 11.0099 28.2939 11.2455 27.8097C11.4811 27.3255 11.8745 26.9358 12.361 26.705C12.333 26.549 12.308 26.394 12.286 26.236C11.6001 26.5162 11.0516 27.0545 10.7586 27.735C10.4655 28.4155 10.4514 29.1839 10.7191 29.8748C10.9869 30.5656 11.5152 31.1237 12.1903 31.429C12.8654 31.7342 13.6334 31.7622 14.329 31.507C14.241 31.378 14.156 31.247 14.072 31.114C13.8478 31.1828 13.6145 31.2179 13.38 31.218V31.218Z" stroke="#07345E"/>
<path d="M16.209 28.8459C16.2082 28.0959 15.9099 27.3768 15.3795 26.8464C14.8491 26.3161 14.1301 26.0178 13.38 26.017C13.312 26.017 13.246 26.022 13.18 26.027C13.2 26.179 13.223 26.327 13.249 26.48C13.293 26.48 13.336 26.473 13.381 26.473C13.8706 26.4729 14.3483 26.6242 14.7485 26.9064C15.1486 27.1885 15.4517 27.5877 15.616 28.049C15.7804 28.5102 15.7979 29.0109 15.6663 29.4825C15.5347 29.9542 15.2604 30.3735 14.881 30.683C14.963 30.811 15.046 30.938 15.133 31.062C15.4681 30.7979 15.739 30.4613 15.9254 30.0775C16.1117 29.6937 16.2087 29.2726 16.209 28.8459Z" stroke="#07345E"/>
<path d="M14.501 30.94C14.3657 31.0124 14.2237 31.0714 14.077 31.116C14.16 31.248 14.245 31.38 14.333 31.509C14.4778 31.4576 14.6182 31.3948 14.753 31.321C14.663 31.196 14.579 31.069 14.501 30.94Z" stroke="#07345E"/>
<path d="M12.796 26.549C12.7707 26.399 12.748 26.248 12.728 26.096C12.577 26.1307 12.4292 26.1779 12.286 26.237C12.308 26.394 12.334 26.55 12.361 26.705C12.5005 26.6388 12.6462 26.5866 12.796 26.549V26.549Z" stroke="#07345E"/>
<path d="M14.8799 30.6841C14.7605 30.7817 14.632 30.8674 14.496 30.9401C14.578 31.0691 14.662 31.196 14.749 31.321C14.8834 31.2459 15.0115 31.1598 15.132 31.064C15.045 30.938 14.9619 30.8121 14.8799 30.6841Z" stroke="#07345E"/>
<path d="M13.18 26.027C13.0277 26.0378 12.8765 26.0608 12.728 26.0959C12.748 26.2479 12.771 26.396 12.796 26.549C12.9441 26.5115 13.0954 26.4884 13.248 26.48C13.222 26.33 13.1993 26.179 13.18 26.027Z" stroke="#07345E"/>
<path d="M13.377 30.762C12.9519 30.7627 12.5386 30.622 12.2023 30.3621C11.866 30.1021 11.6258 29.7376 11.5195 29.326C11.4131 28.9145 11.4468 28.4792 11.615 28.0889C11.7833 27.6985 12.0767 27.3753 12.449 27.17C12.415 27.016 12.385 26.861 12.358 26.705C11.817 26.9618 11.3932 27.4139 11.1718 27.9703C10.9504 28.5268 10.9477 29.1464 11.1644 29.7047C11.3811 30.263 11.801 30.7187 12.3398 30.9801C12.8786 31.2415 13.4963 31.2894 14.069 31.114C13.9843 30.9807 13.9023 30.8447 13.823 30.7061C13.677 30.7422 13.5273 30.7609 13.377 30.762V30.762Z" stroke="#07345E"/>
<path d="M15.753 28.846C15.7531 28.5344 15.6919 28.2258 15.5728 27.9379C15.4536 27.65 15.2789 27.3885 15.0586 27.1682C14.8383 26.9478 14.5768 26.7729 14.2889 26.6536C14.0011 26.5344 13.6926 26.473 13.381 26.473C13.336 26.473 13.293 26.4729 13.249 26.4789C13.275 26.6309 13.303 26.779 13.335 26.931H13.381C13.771 26.9306 14.1518 27.0495 14.4725 27.2715C14.7931 27.4936 15.0382 27.8083 15.175 28.1735C15.3119 28.5388 15.3339 28.9371 15.2381 29.3151C15.1423 29.6932 14.9332 30.033 14.639 30.289C14.717 30.4223 14.7976 30.5557 14.881 30.689C15.1545 30.4662 15.3748 30.185 15.5256 29.8661C15.6765 29.5473 15.7542 29.1988 15.753 28.846V28.846Z" stroke="#07345E"/>
<path d="M13.826 30.707C13.9053 30.8444 13.9873 30.9803 14.072 31.115C14.2187 31.0703 14.3607 31.0115 14.496 30.9391C14.4133 30.8104 14.3333 30.68 14.256 30.548C14.1196 30.6181 13.9752 30.6715 13.826 30.707Z" stroke="#07345E"/>
<path d="M12.88 26.999C12.849 26.85 12.822 26.6991 12.796 26.5491C12.6462 26.587 12.5005 26.6396 12.361 26.7061C12.389 26.8621 12.419 27.017 12.453 27.171C12.5878 27.0966 12.7312 27.0388 12.88 26.999V26.999Z" stroke="#07345E"/>
<path d="M14.638 30.288C14.5216 30.3896 14.3933 30.477 14.256 30.548C14.3333 30.6813 14.4133 30.8116 14.496 30.939C14.6319 30.8662 14.7606 30.7805 14.88 30.683C14.7967 30.553 14.716 30.4213 14.638 30.288Z" stroke="#07345E"/>
<path d="M13.335 26.9321C13.303 26.7831 13.275 26.632 13.249 26.48C13.0965 26.4885 12.9451 26.5115 12.797 26.549C12.823 26.699 12.85 26.849 12.881 26.998C13.0292 26.9579 13.1816 26.9359 13.335 26.9321V26.9321Z" stroke="#07345E"/>
<path d="M36.844 26.096C36.824 26.251 36.803 26.4049 36.777 26.5579C37.3354 26.7999 37.7795 27.2472 38.0176 27.8073C38.2556 28.3674 38.2694 28.9975 38.056 29.5674C37.8426 30.1374 37.4184 30.6036 36.871 30.8697C36.3237 31.1357 35.695 31.1813 35.115 30.997C35.033 31.13 34.949 31.26 34.863 31.39C35.565 31.6527 36.3426 31.6258 37.0248 31.3151C37.7069 31.0045 38.2378 30.4355 38.5005 29.7335C38.7632 29.0314 38.7363 28.2538 38.4256 27.5716C38.1149 26.8894 37.546 26.3587 36.844 26.096V26.096Z" stroke="#07345E"/>
<path d="M33.467 28.738C33.467 28.1087 33.7171 27.5051 34.1621 27.0601C34.6071 26.615 35.2106 26.365 35.84 26.365H35.884C35.908 26.215 35.929 26.065 35.947 25.912C35.911 25.912 35.876 25.906 35.84 25.906C35.2545 25.9055 34.6832 26.0867 34.2052 26.4248C33.7271 26.7629 33.3658 27.2411 33.1712 27.7933C32.9765 28.3456 32.9582 28.9447 33.1187 29.5078C33.2792 30.0709 33.6105 30.5703 34.067 30.937C34.152 30.811 34.234 30.682 34.315 30.552C34.0497 30.33 33.8362 30.0524 33.6897 29.739C33.5432 29.4256 33.4672 29.084 33.467 28.738V28.738Z" stroke="#07345E"/>
<path d="M34.695 30.8149C34.615 30.9439 34.534 31.072 34.449 31.198C34.5816 31.2727 34.7201 31.3366 34.863 31.389C34.9496 31.2597 35.0337 31.1286 35.115 30.996C34.9695 30.9493 34.8289 30.8886 34.695 30.8149Z" stroke="#07345E"/>
<path d="M36.339 26.4191C36.4892 26.4514 36.6359 26.4982 36.777 26.559C36.802 26.406 36.824 26.252 36.844 26.097C36.7001 26.0414 36.552 25.9976 36.401 25.9661C36.383 26.1171 36.363 26.2681 36.339 26.4191Z" stroke="#07345E"/>
<path d="M35.886 26.3669C36.0389 26.3693 36.1913 26.3864 36.341 26.418C36.365 26.268 36.385 26.118 36.403 25.964C36.2533 25.9347 36.1014 25.9176 35.949 25.913C35.928 26.066 35.907 26.2169 35.886 26.3669Z" stroke="#07345E"/>
<path d="M34.067 30.939C34.1871 31.0356 34.3149 31.1222 34.449 31.1979C34.534 31.0729 34.615 30.944 34.695 30.815C34.5601 30.7406 34.4329 30.6532 34.315 30.554C34.234 30.684 34.153 30.813 34.067 30.939Z" stroke="#07345E"/>
<path d="M37.756 28.738C37.7571 29.0311 37.6907 29.3206 37.5619 29.5839C37.4331 29.8472 37.2454 30.0774 37.0132 30.2564C36.7811 30.4354 36.5109 30.5586 36.2234 30.6163C35.936 30.674 35.6392 30.6646 35.356 30.5891C35.279 30.7261 35.2 30.863 35.118 30.997C35.6996 31.1877 36.3324 31.1462 36.8842 30.8812C37.4359 30.6161 37.8637 30.148 38.0784 29.5748C38.293 29.0015 38.2778 28.3676 38.0358 27.8054C37.7938 27.2431 37.3438 26.7962 36.78 26.558C36.754 26.714 36.728 26.87 36.696 27.024C37.0144 27.1831 37.2821 27.4278 37.4694 27.7305C37.6566 28.0333 37.7558 28.382 37.756 28.738V28.738Z" stroke="#07345E"/>
<path d="M33.923 28.737C33.9237 28.2358 34.1207 27.7548 34.4717 27.397C34.8227 27.0393 35.2999 26.8331 35.801 26.8229C35.832 26.6719 35.858 26.523 35.883 26.367H35.839C35.352 26.3667 34.8767 26.5164 34.4776 26.7956C34.0786 27.0748 33.7752 27.47 33.6086 27.9277C33.442 28.3853 33.4204 28.8832 33.5466 29.3536C33.6728 29.824 33.9407 30.2441 34.314 30.5569C34.396 30.4249 34.474 30.2909 34.551 30.1569C34.3527 29.9774 34.1944 29.7582 34.0862 29.5136C33.978 29.269 33.9224 29.0045 33.923 28.737V28.737Z" stroke="#07345E"/>
<path d="M34.928 30.4221C34.852 30.5541 34.775 30.686 34.695 30.815C34.8289 30.8887 34.9695 30.9493 35.115 30.996C35.197 30.862 35.276 30.7251 35.353 30.5881C35.2052 30.55 35.0625 30.4943 34.928 30.4221Z" stroke="#07345E"/>
<path d="M36.2579 26.868C36.4083 26.902 36.5541 26.9541 36.692 27.023C36.724 26.869 36.7499 26.7131 36.7759 26.5571C36.6348 26.4966 36.4881 26.45 36.338 26.418C36.3113 26.5694 36.2846 26.7193 36.2579 26.868Z" stroke="#07345E"/>
<path d="M35.8019 26.823H35.84C35.9809 26.8233 36.1214 26.8391 36.259 26.87C36.289 26.7207 36.3157 26.5706 36.339 26.4199C36.1893 26.3884 36.0369 26.3714 35.884 26.369C35.859 26.52 35.8329 26.672 35.8019 26.823Z" stroke="#07345E"/>
<path d="M34.552 30.152C34.475 30.287 34.397 30.4219 34.315 30.5519C34.433 30.6509 34.5603 30.7384 34.695 30.813C34.775 30.684 34.853 30.553 34.928 30.42C34.7923 30.3462 34.666 30.2563 34.552 30.152V30.152Z" stroke="#07345E"/>
<path d="M12.526 17.996C12.5254 17.609 12.6196 17.2278 12.8005 16.8856C12.9813 16.5435 13.2432 16.2508 13.5633 16.0332C13.8833 15.8157 14.2518 15.6798 14.6365 15.6376C15.0212 15.5954 15.4103 15.6481 15.77 15.791C15.886 15.675 16.004 15.5621 16.124 15.4511C15.5132 15.1553 14.8163 15.0893 14.1609 15.2653C13.5055 15.4412 12.9354 15.8473 12.5549 16.4092C12.1744 16.9711 12.009 17.6513 12.0889 18.3252C12.1688 18.9991 12.4886 19.6216 12.99 20.079C13.049 19.926 13.11 19.7741 13.175 19.6231C12.7581 19.184 12.5258 18.6015 12.526 17.996V17.996Z" stroke="#07345E"/>
<path d="M17.728 17.996C17.7282 17.6222 17.654 17.2521 17.5098 16.9072C17.3656 16.5623 17.1542 16.2494 16.888 15.987C16.775 16.087 16.665 16.194 16.556 16.3C16.9548 16.6882 17.2042 17.2044 17.2607 17.7581C17.3172 18.3118 17.1772 18.8677 16.8651 19.3286C16.5529 19.7894 16.0886 20.1256 15.5535 20.2785C15.0183 20.4314 14.4465 20.3913 13.938 20.165C13.88 20.306 13.823 20.447 13.771 20.59C14.2013 20.778 14.6717 20.8557 15.1396 20.8162C15.6075 20.7767 16.0582 20.6212 16.4509 20.3638C16.8437 20.1065 17.1661 19.7554 17.389 19.3421C17.612 18.9289 17.7285 18.4666 17.728 17.997V17.996Z" stroke="#07345E"/>
<path d="M13.535 19.935C13.4048 19.8434 13.2841 19.7389 13.175 19.623C13.11 19.773 13.049 19.923 12.99 20.079C13.106 20.1863 13.2307 20.2835 13.363 20.3699C13.4176 20.2233 13.475 20.0783 13.535 19.935Z" stroke="#07345E"/>
<path d="M15.771 15.791C15.9185 15.8492 16.0598 15.922 16.193 16.0081C16.303 15.9001 16.415 15.792 16.53 15.687C16.4034 15.5968 16.2696 15.5172 16.1299 15.449C16.0049 15.562 15.887 15.67 15.771 15.791Z" stroke="#07345E"/>
<path d="M16.89 15.9869C16.7787 15.8773 16.6586 15.777 16.5309 15.687C16.4159 15.787 16.305 15.8991 16.194 16.0081C16.3246 16.0928 16.4465 16.1902 16.558 16.299C16.666 16.194 16.776 16.0889 16.89 15.9869Z" stroke="#07345E"/>
<path d="M13.938 20.164C13.7975 20.1009 13.6635 20.0242 13.538 19.935C13.478 20.0783 13.4209 20.2226 13.3669 20.368C13.4963 20.4524 13.6325 20.526 13.774 20.5881C13.824 20.4451 13.881 20.304 13.938 20.164Z" stroke="#07345E"/>
<path d="M12.984 17.996C12.9833 17.6995 13.0515 17.4068 13.1834 17.1413C13.3154 16.8757 13.5072 16.6445 13.744 16.4659C13.9807 16.2873 14.2557 16.1662 14.5473 16.1122C14.8389 16.0583 15.139 16.0729 15.424 16.1549C15.5373 16.0309 15.653 15.9096 15.771 15.7909C15.2691 15.5898 14.7135 15.5664 14.1964 15.7245C13.6794 15.8826 13.2319 16.2129 12.9284 16.6603C12.6248 17.1077 12.4833 17.6455 12.5274 18.1844C12.5716 18.7233 12.7986 19.2309 13.171 19.623C13.238 19.468 13.306 19.315 13.379 19.164C13.1211 18.8294 12.9822 18.4184 12.984 17.996V17.996Z" stroke="#07345E"/>
<path d="M17.272 17.996C17.2727 17.6791 17.2096 17.3653 17.0866 17.0733C16.9636 16.7813 16.7832 16.517 16.556 16.2961C16.447 16.4021 16.34 16.511 16.235 16.622C16.5571 16.9354 16.7586 17.3523 16.8043 17.7994C16.85 18.2465 16.7369 18.6954 16.4848 19.0674C16.2327 19.4395 15.8577 19.7111 15.4255 19.8344C14.9933 19.9577 14.5315 19.925 14.121 19.742C14.058 19.88 13.996 20.0201 13.938 20.1611C14.2991 20.3216 14.6945 20.3892 15.0884 20.358C15.4824 20.3267 15.8623 20.1975 16.1935 19.9821C16.5248 19.7667 16.7969 19.4718 16.9853 19.1245C17.1736 18.7771 17.2722 18.3881 17.272 17.993V17.996Z" stroke="#07345E"/>
<path d="M13.383 19.1639C13.31 19.3149 13.242 19.4639 13.175 19.6229C13.2842 19.7387 13.4049 19.8433 13.535 19.9349C13.595 19.7909 13.659 19.648 13.725 19.507C13.5971 19.4074 13.4821 19.2922 13.383 19.1639V19.1639Z" stroke="#07345E"/>
<path d="M15.866 16.345C15.973 16.231 16.082 16.119 16.193 16.009C16.0601 15.9222 15.9187 15.8491 15.771 15.791C15.653 15.9096 15.5373 16.031 15.424 16.155C15.5789 16.1991 15.7274 16.263 15.866 16.345V16.345Z" stroke="#07345E"/>
<path d="M14.1219 19.746C13.9793 19.6831 13.845 19.6028 13.722 19.507C13.656 19.649 13.592 19.791 13.532 19.935C13.6575 20.0242 13.7915 20.1009 13.9319 20.164C13.9969 20.024 14.0579 19.884 14.1219 19.746Z" stroke="#07345E"/>
<path d="M15.865 16.345C15.9993 16.4233 16.1235 16.5176 16.235 16.626C16.3397 16.5153 16.4466 16.4067 16.556 16.3C16.4444 16.1914 16.3225 16.0939 16.192 16.009C16.081 16.118 15.972 16.231 15.865 16.345Z" stroke="#07345E"/>
<path d="M33.371 15.823C33.8805 15.5991 34.4525 15.5616 34.9869 15.717C35.5212 15.8724 35.9839 16.2109 36.2939 16.6731C36.6038 17.1353 36.7413 17.6918 36.6823 18.2452C36.6233 18.7986 36.3715 19.3135 35.971 19.6999C36.034 19.8489 36.092 20 36.15 20.152C36.6808 19.7032 37.0275 19.0745 37.124 18.3862C37.2204 17.6979 37.0599 16.9981 36.6729 16.4208C36.286 15.8434 35.6998 15.4288 35.0264 15.2563C34.3531 15.0839 33.6399 15.1656 33.023 15.4859C33.141 15.5959 33.258 15.708 33.371 15.823Z" stroke="#07345E"/>
<path d="M34.32 20.826C34.6738 20.8252 35.0244 20.7573 35.353 20.6259C35.301 20.4829 35.245 20.342 35.188 20.202C34.6846 20.4008 34.1284 20.4213 33.6117 20.2602C33.0951 20.099 32.6491 19.7659 32.348 19.3162C32.0469 18.8665 31.9088 18.3272 31.9567 17.7881C32.0045 17.2491 32.2354 16.7426 32.611 16.353C32.503 16.246 32.394 16.141 32.282 16.039C31.8973 16.4386 31.6387 16.9425 31.5384 17.488C31.4381 18.0335 31.5006 18.5964 31.718 19.1066C31.9354 19.6169 32.2981 20.0519 32.7609 20.3575C33.2238 20.663 33.7664 20.8256 34.321 20.825L34.32 20.826Z" stroke="#07345E"/>
<path d="M35.5989 19.993C35.6569 20.135 35.7149 20.278 35.7679 20.422C35.9022 20.3423 36.0297 20.2517 36.149 20.151C36.092 19.999 36.033 19.851 35.97 19.699C35.8563 19.809 35.732 19.9075 35.5989 19.993V19.993Z" stroke="#07345E"/>
<path d="M32.964 16.051C33.0918 15.9615 33.2281 15.8848 33.371 15.822C33.257 15.707 33.141 15.595 33.023 15.485C32.8854 15.5568 32.754 15.6398 32.63 15.733C32.7433 15.837 32.8547 15.943 32.964 16.051Z" stroke="#07345E"/>
<path d="M32.282 16.04C32.394 16.14 32.503 16.2471 32.611 16.3541C32.7183 16.2429 32.8361 16.1423 32.963 16.054C32.8536 15.946 32.7423 15.84 32.629 15.736C32.5053 15.8278 32.3892 15.9294 32.282 16.04Z" stroke="#07345E"/>
<path d="M35.353 20.6279C35.4966 20.5726 35.6353 20.5058 35.768 20.428C35.715 20.283 35.657 20.14 35.599 19.998C35.4691 20.0812 35.3315 20.1515 35.188 20.208C35.245 20.344 35.301 20.4849 35.353 20.6279Z" stroke="#07345E"/>
<path d="M34.321 16.08C34.6883 16.0795 35.0481 16.1846 35.3572 16.383C35.6664 16.5814 35.9119 16.8647 36.0644 17.1989C36.2169 17.5332 36.27 17.9041 36.2172 18.2677C36.1645 18.6312 36.0082 18.9719 35.767 19.249C35.837 19.398 35.906 19.5491 35.967 19.6991C36.3667 19.3125 36.6179 18.7976 36.6765 18.2446C36.7352 17.6916 36.5976 17.1356 36.2878 16.6738C35.978 16.212 35.5157 15.8737 34.9818 15.7182C34.4479 15.5627 33.8763 15.5997 33.3669 15.823C33.4829 15.94 33.5969 16.059 33.7079 16.181C33.9054 16.1141 34.1125 16.08 34.321 16.08V16.08Z" stroke="#07345E"/>
<path d="M34.321 20.369C34.6182 20.3687 34.9127 20.3124 35.189 20.203C35.131 20.061 35.07 19.922 35.007 19.783C34.6021 19.9389 34.1561 19.9526 33.7424 19.8217C33.3287 19.6907 32.9718 19.4231 32.7303 19.0626C32.4888 18.7021 32.377 18.2702 32.4133 17.8378C32.4496 17.4054 32.6318 16.9982 32.93 16.683C32.83 16.572 32.72 16.462 32.611 16.354C32.2882 16.6891 32.0711 17.1117 31.9868 17.5693C31.9024 18.0269 31.9546 18.4992 32.1368 18.9274C32.319 19.3555 32.6232 19.7207 33.0114 19.9772C33.3996 20.2337 33.8547 20.3703 34.32 20.37L34.321 20.369Z" stroke="#07345E"/>
<path d="M33.2859 16.386C33.4192 16.3002 33.5627 16.2314 33.713 16.181C33.602 16.059 33.487 15.94 33.372 15.823C33.2291 15.8857 33.0927 15.9624 32.965 16.052C33.074 16.161 33.1799 16.273 33.2859 16.386Z" stroke="#07345E"/>
<path d="M35.414 19.568C35.478 19.709 35.54 19.8499 35.599 19.9929C35.7324 19.9075 35.8571 19.8091 35.971 19.699C35.906 19.547 35.837 19.399 35.771 19.249C35.6657 19.3698 35.5458 19.4769 35.414 19.568V19.568Z" stroke="#07345E"/>
<path d="M32.611 16.353C32.72 16.46 32.825 16.57 32.93 16.682C33.0359 16.5678 33.1555 16.4671 33.286 16.3821C33.18 16.2681 33.074 16.156 32.964 16.047C32.8365 16.1371 32.7183 16.2396 32.611 16.353V16.353Z" stroke="#07345E"/>
<path d="M35.007 19.782C35.07 19.921 35.131 20.06 35.189 20.202C35.3325 20.1456 35.4702 20.0753 35.6 19.992C35.541 19.849 35.479 19.708 35.415 19.567C35.2882 19.6549 35.1512 19.7272 35.007 19.782V19.782Z" stroke="#07345E"/>
<path d="M24.555 10.198C25.1471 10.1981 25.7178 10.4197 26.1549 10.8192C26.592 11.2187 26.8638 11.7673 26.917 12.3571C27.072 12.3871 27.226 12.421 27.379 12.457C27.3551 11.7241 27.0472 11.0292 26.5203 10.5192C25.9934 10.0092 25.2888 9.724 24.5555 9.724C23.8222 9.724 23.1177 10.0092 22.5908 10.5192C22.0639 11.0292 21.7559 11.7241 21.732 12.457C21.885 12.421 22.038 12.3871 22.193 12.3571C22.2462 11.7673 22.518 11.2187 22.9551 10.8192C23.3922 10.4197 23.9628 10.1981 24.555 10.198V10.198Z" stroke="#07345E"/>
<path d="M24.556 15.4C25.1668 15.3991 25.761 15.2007 26.2499 14.8345C26.7388 14.4683 27.0963 13.9538 27.269 13.3679C27.122 13.3319 26.969 13.2979 26.824 13.2679C26.6747 13.7529 26.3739 14.1773 25.9657 14.4788C25.5575 14.7802 25.0634 14.9429 24.556 14.9429C24.0485 14.9429 23.5544 14.7802 23.1462 14.4788C22.738 14.1773 22.4372 13.7529 22.288 13.2679C22.139 13.2979 21.988 13.3329 21.843 13.3679C22.0157 13.9538 22.3732 14.4683 22.8621 14.8345C23.351 15.2007 23.9451 15.3991 24.556 15.4Z" stroke="#07345E"/>
<path d="M21.75 12.921C21.898 12.885 22.05 12.851 22.196 12.821C22.1874 12.7383 22.183 12.6551 22.183 12.572C22.183 12.5 22.183 12.429 22.194 12.358C22.039 12.388 21.885 12.4221 21.732 12.4581C21.732 12.4961 21.726 12.534 21.726 12.572C21.7267 12.6887 21.7347 12.8052 21.75 12.921V12.921Z" stroke="#07345E"/>
<path d="M26.928 12.572C26.928 12.6551 26.9237 12.7383 26.915 12.821C27.065 12.851 27.215 12.886 27.361 12.921C27.3761 12.8052 27.3841 12.6887 27.3849 12.572C27.3849 12.534 27.385 12.4961 27.379 12.4581C27.226 12.4221 27.073 12.388 26.918 12.358C26.924 12.428 26.928 12.502 26.928 12.572Z" stroke="#07345E"/>
<path d="M22.288 13.2681C22.2432 13.122 22.2127 12.972 22.197 12.8201C22.047 12.8501 21.897 12.885 21.751 12.92C21.7698 13.0717 21.8009 13.2215 21.844 13.368C21.991 13.333 22.139 13.2981 22.288 13.2681Z" stroke="#07345E"/>
<path d="M27.2679 13.369C27.3111 13.2225 27.3422 13.0726 27.361 12.921C27.213 12.885 27.061 12.851 26.915 12.821C26.8993 12.973 26.8688 13.123 26.824 13.269C26.973 13.298 27.1209 13.333 27.2679 13.369Z" stroke="#07345E"/>
<path d="M24.5549 10.655C25.0109 10.6558 25.4517 10.8191 25.7981 11.1157C26.1445 11.4122 26.3738 11.8226 26.4449 12.273C26.6029 12.297 26.76 12.327 26.916 12.358C26.8643 11.7671 26.5931 11.2171 26.1559 10.8163C25.7186 10.4156 25.1471 10.1933 24.554 10.1933C23.9609 10.1933 23.3893 10.4156 22.952 10.8163C22.5148 11.2171 22.2436 11.7671 22.192 12.358C22.348 12.328 22.505 12.298 22.663 12.273C22.7341 11.8223 22.9637 11.4116 23.3105 11.1151C23.6574 10.8185 24.0986 10.6553 24.5549 10.655V10.655Z" stroke="#07345E"/>
<path d="M24.555 14.9431C25.0625 14.9428 25.5566 14.78 25.9648 14.4783C26.373 14.1767 26.6738 13.7521 26.823 13.267C26.6723 13.2364 26.5203 13.2093 26.367 13.186C26.2387 13.5651 25.9948 13.8945 25.6696 14.1277C25.3443 14.361 24.9542 14.4865 24.554 14.4865C24.1537 14.4865 23.7636 14.361 23.4384 14.1277C23.1132 13.8945 22.8693 13.5651 22.741 13.186C22.588 13.21 22.441 13.237 22.286 13.267C22.4351 13.7524 22.736 14.1771 23.1444 14.4788C23.5528 14.7805 24.0472 14.9432 24.555 14.9431Z" stroke="#07345E"/>
<path d="M26.4719 12.572C26.4719 12.629 26.4719 12.6839 26.4639 12.7399C26.6149 12.7649 26.764 12.791 26.916 12.821C26.9246 12.7383 26.9289 12.6551 26.929 12.572C26.929 12.5 26.929 12.429 26.918 12.358C26.762 12.328 26.605 12.298 26.447 12.274C26.4631 12.3725 26.4714 12.4721 26.4719 12.572Z" stroke="#07345E"/>
<path d="M22.64 12.572C22.6408 12.4714 22.6495 12.3712 22.666 12.272C22.508 12.296 22.3509 12.326 22.1949 12.356C22.1879 12.426 22.184 12.497 22.184 12.57C22.184 12.6532 22.1883 12.7363 22.197 12.819C22.347 12.789 22.4969 12.763 22.6489 12.738C22.6429 12.684 22.64 12.628 22.64 12.572Z" stroke="#07345E"/>
<path d="M26.368 13.186C26.521 13.21 26.6679 13.2369 26.8229 13.2679C26.8677 13.1219 26.8982 12.9719 26.9139 12.8199C26.7639 12.7899 26.614 12.764 26.462 12.739C26.4488 12.8913 26.4173 13.0414 26.368 13.186V13.186Z" stroke="#07345E"/>
<path d="M22.7419 13.186C22.6923 13.0411 22.6605 12.8907 22.647 12.738C22.495 12.763 22.3469 12.789 22.1949 12.819C22.2107 12.9709 22.2412 13.1209 22.2859 13.267C22.4419 13.238 22.5899 13.211 22.7419 13.186Z" stroke="#07345E"/>
<path d="M24.5559 19.8331C23.6315 19.8331 22.7277 20.1072 21.9591 20.6208C21.1904 21.1344 20.5914 21.8644 20.2377 22.7186C19.8839 23.5727 19.7914 24.5126 19.9718 25.4193C20.1523 26.3259 20.5975 27.1588 21.2513 27.8124C21.905 28.4661 22.738 28.9111 23.6447 29.0914C24.5514 29.2716 25.4913 29.1788 26.3453 28.8249C27.1994 28.471 27.9293 27.8717 28.4427 27.103C28.9562 26.3342 29.2302 25.4305 29.23 24.506C29.2284 23.267 28.7354 22.0791 27.8592 21.2031C26.9829 20.327 25.795 19.8344 24.5559 19.8331ZM24.5559 28.7241C23.7219 28.7241 22.9066 28.4767 22.2131 28.0134C21.5196 27.55 20.9791 26.8913 20.66 26.1208C20.3408 25.3502 20.2572 24.5023 20.42 23.6843C20.5827 22.8662 20.9843 22.115 21.5741 21.5252C22.1638 20.9354 22.9152 20.5337 23.7333 20.371C24.5513 20.2083 25.3992 20.2918 26.1697 20.611C26.9403 20.9302 27.5989 21.4706 28.0622 22.1641C28.5256 22.8576 28.7729 23.673 28.7729 24.507C28.7729 25.6254 28.3287 26.698 27.5378 27.4888C26.747 28.2797 25.6744 28.7241 24.5559 28.7241V28.7241Z" stroke="#07345E"/>
<path d="M24.5549 20.2889C23.7209 20.2889 22.9056 20.5363 22.2121 20.9996C21.5186 21.463 20.9781 22.1217 20.6589 22.8922C20.3397 23.6628 20.2563 24.5107 20.419 25.3287C20.5817 26.1468 20.9833 26.8982 21.573 27.4879C22.1628 28.0777 22.9142 28.4793 23.7322 28.642C24.5502 28.8047 25.3981 28.7212 26.1687 28.402C26.9392 28.0828 27.5979 27.5424 28.0613 26.8489C28.5246 26.1554 28.772 25.34 28.772 24.506C28.772 23.3876 28.3276 22.315 27.5368 21.5242C26.7459 20.7333 25.6733 20.2889 24.5549 20.2889V20.2889ZM24.5549 28.267C23.8113 28.2668 23.0845 28.0461 22.4663 27.6328C21.8481 27.2195 21.3663 26.6323 21.0819 25.9452C20.7975 25.2581 20.7231 24.5021 20.8683 23.7728C21.0135 23.0435 21.3717 22.3736 21.8976 21.8479C22.4235 21.3222 23.0934 20.9642 23.8227 20.8192C24.5521 20.6742 25.3081 20.7487 25.995 21.0333C26.682 21.3179 27.2692 21.7998 27.6824 22.4181C28.0955 23.0364 28.316 23.7633 28.316 24.507C28.3146 25.5039 27.9179 26.4597 27.2129 27.1646C26.5078 27.8694 25.5519 28.2659 24.5549 28.267V28.267Z" stroke="#07345E"/>
<path d="M29.665 35.97L30.15 38.233H29.684L29.704 38.326L30.597 38.1349L30.112 35.872C30.094 35.787 30.073 35.7029 30.052 35.6199C29.9127 35.6866 29.772 35.7533 29.63 35.82C29.641 35.871 29.654 35.92 29.665 35.97Z" stroke="#07345E"/>
<path d="M19.352 36.064C19.372 35.972 19.394 35.882 19.418 35.792C19.277 35.727 19.138 35.661 19 35.592C18.965 35.716 18.932 35.841 18.9 35.969L18.421 38.205L19.314 38.396L19.335 38.296H18.868L19.352 36.064Z" stroke="#07345E"/>
<path d="M24.137 31.3679C23.1061 31.445 22.115 31.798 21.2674 32.3896C20.4198 32.9813 19.7468 33.7899 19.319 34.7309C19.4523 34.7976 19.5886 34.8642 19.728 34.9309C20.1412 34.0017 20.8156 33.2126 21.669 32.6595C22.5224 32.1065 23.5181 31.8133 24.5351 31.8157C25.5521 31.818 26.5465 32.1157 27.3973 32.6727C28.2482 33.2297 28.9189 34.0219 29.3279 34.953C29.4673 34.8863 29.6053 34.8196 29.7419 34.7529C29.2717 33.6789 28.4804 32.7769 27.4767 32.1708C26.4731 31.5646 25.3064 31.2841 24.137 31.3679V31.3679Z" stroke="#07345E"/>
<path d="M29.501 35.382C29.55 35.526 29.592 35.672 29.629 35.821C29.771 35.7544 29.9117 35.6876 30.051 35.621C30.012 35.471 29.966 35.321 29.917 35.182C29.7797 35.2513 29.641 35.318 29.501 35.382Z" stroke="#07345E"/>
<path d="M19.554 35.3571C19.4153 35.2904 19.278 35.2236 19.142 35.157C19.0894 35.2996 19.042 35.445 19 35.593C19.138 35.6597 19.2774 35.7263 19.418 35.793C19.458 35.645 19.5033 35.4997 19.554 35.3571Z" stroke="#07345E"/>
<path d="M29.334 34.952C29.3953 35.092 29.451 35.2349 29.501 35.3809C29.641 35.3143 29.7797 35.2476 29.917 35.181C29.8663 35.0336 29.81 34.8899 29.748 34.7499C29.6113 34.8206 29.4733 34.888 29.334 34.952Z" stroke="#07345E"/>
<path d="M19.3199 34.73C19.2533 34.8693 19.1943 35.0116 19.1429 35.157C19.2789 35.226 19.4159 35.2939 19.5549 35.3569C19.6069 35.2116 19.6649 35.0697 19.7289 34.931C19.5909 34.8664 19.4546 34.7993 19.3199 34.73Z" stroke="#07345E"/>
<path d="M19.845 35.9791C19.701 35.9191 19.559 35.8561 19.419 35.7921C19.395 35.8821 19.372 35.972 19.353 36.064L18.874 38.3H19.341L19.799 36.163C19.812 36.098 19.83 36.0391 19.845 35.9791Z" stroke="#07345E"/>
<path d="M29.6639 35.972C29.6529 35.922 29.641 35.872 29.628 35.822C29.4873 35.8886 29.3453 35.9497 29.202 36.0051C29.202 36.0261 29.212 36.0461 29.217 36.0681L29.6819 38.238H30.1479L29.6639 35.972Z" stroke="#07345E"/>
<path d="M24.168 31.822C23.2166 31.8921 22.3018 32.2181 21.5204 32.7654C20.7391 33.3126 20.1201 34.0609 19.729 34.931C19.867 34.995 20.007 35.059 20.148 35.118C20.5057 34.3247 21.0705 33.6424 21.783 33.1427C22.4954 32.643 23.3293 32.3443 24.197 32.2781C25.1826 32.2079 26.1656 32.445 27.0109 32.9567C27.8562 33.4683 28.5221 34.2293 28.917 35.135C29.057 35.077 29.196 35.0161 29.333 34.9531C28.8976 33.9641 28.1684 33.133 27.2444 32.5729C26.3203 32.0127 25.2462 31.7505 24.168 31.822V31.822Z" stroke="#07345E"/>
<path d="M19.554 35.3569C19.5026 35.4996 19.4573 35.6447 19.418 35.792C19.559 35.856 19.701 35.92 19.845 35.979C19.8823 35.831 19.926 35.6859 19.976 35.5439C19.834 35.4839 19.694 35.4219 19.554 35.3569Z" stroke="#07345E"/>
<path d="M29.203 36.004C29.3463 35.9454 29.4884 35.8843 29.629 35.8209C29.5924 35.6716 29.5497 35.5253 29.501 35.382C29.362 35.445 29.223 35.5069 29.082 35.5649C29.128 35.7083 29.1683 35.8547 29.203 36.004Z" stroke="#07345E"/>
<path d="M20.1479 35.118C20.0069 35.059 19.8669 34.9959 19.7289 34.9319C19.6623 35.0706 19.6043 35.2126 19.5549 35.358C19.6939 35.423 19.834 35.486 19.976 35.545C20.028 35.398 20.0849 35.256 20.1479 35.118Z" stroke="#07345E"/>
<path d="M28.918 35.1351C28.9786 35.2744 29.0329 35.4174 29.0809 35.564C29.2219 35.506 29.3619 35.445 29.4999 35.381C29.4506 35.235 29.3949 35.0921 29.3329 34.9521C29.1939 35.0161 29.058 35.0771 28.918 35.1351Z" stroke="#07345E"/>
<path d="M53 26.3973C53 25.6138 53.2204 24.9125 53.6611 24.2935C54.1096 23.6745 54.7243 23.1848 55.5053 22.8244C56.2863 22.464 57.1793 22.2838 58.1845 22.2838C58.5016 22.2838 58.8341 22.3034 59.182 22.3426C59.5377 22.3817 59.8934 22.4327 60.2491 22.4953C59.9939 21.2182 59.0776 20.5796 57.5002 20.5796C56.5646 20.5796 55.6251 20.9361 54.6818 21.6491L53.5335 18.7932C54.3377 18.4014 55.1303 18.1115 55.9112 17.9235C56.6922 17.7354 57.4345 17.6414 58.1382 17.6414C59.2593 17.6414 60.2298 17.8569 61.0494 18.2878C61.8768 18.7109 62.5185 19.3142 62.9747 20.0977C63.431 20.8734 63.6591 21.7862 63.6591 22.8362V29.6293H60.8522L60.6318 28.3718C60.1988 28.8341 59.6692 29.1984 59.0428 29.4648C58.4243 29.7312 57.7438 29.8644 57.0015 29.8644C55.8262 29.8644 54.8635 29.5432 54.1135 28.9007C53.3712 28.2582 53 27.4237 53 26.3973ZM56.3404 25.6216C56.3404 26.0134 56.4873 26.3307 56.7811 26.5736C57.0827 26.8087 57.477 26.9262 57.9642 26.9262C58.6292 26.9262 59.1859 26.7225 59.6344 26.315C60.0906 25.9076 60.3187 25.4061 60.3187 24.8107V24.5756C60.0326 24.4816 59.7233 24.4071 59.3908 24.3523C59.066 24.2974 58.7451 24.27 58.4281 24.27C57.7709 24.27 57.2567 24.3876 56.8855 24.6226C56.5221 24.8577 56.3404 25.1907 56.3404 25.6216Z" fill="#07345E"/>
<path d="M66.2223 17.8882H69.5743V24.1878C69.5743 25.0653 69.756 25.7431 70.1194 26.221C70.4829 26.699 71.0048 26.9379 71.6852 26.9379C72.4121 26.9379 72.9998 26.6794 73.4482 26.1622C73.9044 25.6451 74.1325 24.983 74.1325 24.176H74.1441V17.8764H77.4845V29.6293H74.5617L74.4225 28.1837C73.9663 28.7165 73.4212 29.1318 72.7871 29.4295C72.1531 29.7195 71.4571 29.8644 70.6994 29.8644C69.2302 29.8644 68.1168 29.3825 67.359 28.4188C66.6012 27.4551 66.2223 26.0369 66.2223 24.1643V17.8882Z" fill="#07345E"/>
<path d="M79.8158 17.8764H81.7296V14.9382H85.07V17.8764H87.8884V20.8147H85.07V25.1397C85.07 25.696 85.2439 26.1348 85.5919 26.4561C85.9476 26.7695 86.3961 26.9262 86.9373 26.9262C87.3394 26.9262 87.7531 26.8361 88.1784 26.6559V29.4295C87.4438 29.7195 86.7208 29.8644 86.0094 29.8644C84.6331 29.8644 83.5738 29.4922 82.8314 28.7479C82.0969 27.9957 81.7296 26.9223 81.7296 25.5276V20.8147H79.8158V17.8764Z" fill="#07345E"/>
<path d="M89.9298 23.7529C89.9298 22.5776 90.1965 21.5316 90.7301 20.6149C91.2713 19.6903 92.0059 18.9656 92.9338 18.4406C93.8694 17.9078 94.9326 17.6414 96.1234 17.6414C97.3142 17.6414 98.3735 17.9078 99.3014 18.4406C100.229 18.9656 100.96 19.6903 101.494 20.6149C102.035 21.5316 102.305 22.5776 102.305 23.7529C102.305 24.9282 102.035 25.9781 101.494 26.9027C100.96 27.8194 100.229 28.5442 99.3014 29.077C98.3735 29.6019 97.3142 29.8644 96.1234 29.8644C94.9326 29.8644 93.8694 29.6019 92.9338 29.077C92.0059 28.5442 91.2713 27.8194 90.7301 26.9027C90.1965 25.9781 89.9298 24.9282 89.9298 23.7529ZM93.1773 23.7529C93.1773 24.6618 93.4557 25.4179 94.0124 26.0212C94.5692 26.6245 95.2728 26.9262 96.1234 26.9262C96.9739 26.9262 97.6776 26.6245 98.2343 26.0212C98.791 25.4179 99.0694 24.6618 99.0694 23.7529C99.0694 22.844 98.791 22.0879 98.2343 21.4846C97.6776 20.8813 96.9739 20.5796 96.1234 20.5796C95.2728 20.5796 94.5692 20.8813 94.0124 21.4846C93.4557 22.0879 93.1773 22.844 93.1773 23.7529Z" fill="#07345E"/>
<path d="M104.521 29.6293V17.8764H107.444L107.606 19.5571C108.449 18.28 109.609 17.6414 111.085 17.6414C111.588 17.6414 112.106 17.7197 112.64 17.8764L112.176 20.8029C111.727 20.6541 111.287 20.5796 110.854 20.5796C109.957 20.5796 109.234 20.9165 108.685 21.5904C108.136 22.2564 107.861 23.2083 107.861 24.4463V29.6293H104.521Z" fill="#07345E"/>
<path d="M116.247 24.7636C116.456 25.414 116.838 25.9429 117.395 26.3503C117.96 26.7577 118.617 26.9614 119.367 26.9614C120.171 26.9614 120.836 26.8322 121.362 26.5736C121.895 26.3072 122.379 25.9664 122.812 25.5511L124.83 27.9957C123.933 28.7087 123.044 29.1984 122.162 29.4648C121.288 29.7312 120.449 29.8644 119.645 29.8644C118.362 29.8644 117.229 29.6019 116.247 29.077C115.265 28.5442 114.495 27.8155 113.939 26.8909C113.382 25.9585 113.104 24.9008 113.104 23.7176C113.104 22.5502 113.37 21.512 113.904 20.6031C114.437 19.6864 115.164 18.9656 116.084 18.4406C117.012 17.9078 118.064 17.6414 119.239 17.6414C120.407 17.6414 121.443 17.9039 122.348 18.4288C123.26 18.9538 123.979 19.6746 124.505 20.5914C125.031 21.5081 125.294 22.558 125.294 23.7411V24.7636H116.247ZM121.861 22.8832C121.698 22.1937 121.366 21.6374 120.863 21.2143C120.36 20.7912 119.757 20.5796 119.054 20.5796C118.342 20.5796 117.724 20.7951 117.198 21.226C116.68 21.657 116.34 22.2094 116.177 22.8832H121.861Z" fill="#07345E"/>
<path d="M137.681 28.125C137.116 28.6734 136.44 29.1005 135.651 29.406C134.87 29.7116 134.02 29.8644 133.1 29.8644C131.87 29.8644 130.772 29.6019 129.806 29.077C128.847 28.5442 128.089 27.8194 127.532 26.9027C126.975 25.9781 126.697 24.9282 126.697 23.7529C126.697 22.5776 126.975 21.5316 127.532 20.6149C128.089 19.6903 128.847 18.9656 129.806 18.4406C130.772 17.9078 131.87 17.6414 133.1 17.6414C134.02 17.6414 134.87 17.7942 135.651 18.0998C136.44 18.4053 137.116 18.8324 137.681 19.3808L135.326 21.6256C134.77 20.9283 134.027 20.5796 133.1 20.5796C132.249 20.5796 131.545 20.8813 130.989 21.4846C130.432 22.0879 130.153 22.844 130.153 23.7529C130.153 24.6618 130.432 25.4179 130.989 26.0212C131.545 26.6245 132.249 26.9262 133.1 26.9262C134.027 26.9262 134.77 26.5775 135.326 25.8802L137.681 28.125Z" fill="#07345E"/>
<path d="M139.896 29.6293V17.8764H142.819L142.981 19.5571C143.824 18.28 144.984 17.6414 146.461 17.6414C146.964 17.6414 147.482 17.7197 148.015 17.8764L147.551 20.8029C147.103 20.6541 146.662 20.5796 146.229 20.5796C145.332 20.5796 144.609 20.9165 144.06 21.5904C143.511 22.2564 143.237 23.2083 143.237 24.4463V29.6293H139.896Z" fill="#07345E"/>
<path d="M149.059 17.8882H152.411V24.1878C152.411 25.0653 152.593 25.7431 152.956 26.221C153.32 26.699 153.842 26.9379 154.522 26.9379C155.249 26.9379 155.837 26.6794 156.285 26.1622C156.741 25.6451 156.969 24.983 156.969 24.176H156.981V17.8764H160.321V29.6293H157.398L157.259 28.1837C156.803 28.7165 156.258 29.1318 155.624 29.4295C154.99 29.7195 154.294 29.8644 153.536 29.8644C152.067 29.8644 150.954 29.3825 150.196 28.4188C149.438 27.4551 149.059 26.0369 149.059 24.1643V17.8882Z" fill="#07345E"/>
<path d="M162.977 13.8805C162.977 13.3163 163.147 12.8619 163.488 12.5171C163.828 12.1724 164.276 12 164.833 12C165.39 12 165.838 12.1724 166.179 12.5171C166.519 12.8619 166.689 13.3163 166.689 13.8805C166.689 14.4446 166.519 14.899 166.179 15.2438C165.838 15.5886 165.39 15.7609 164.833 15.7609C164.276 15.7609 163.828 15.5886 163.488 15.2438C163.147 14.899 162.977 14.4446 162.977 13.8805ZM163.163 29.6293V17.8764H166.503V29.6293H163.163Z" fill="#07345E"/>
<path d="M168.637 17.8764H170.551V14.9382H173.892V17.8764H176.71V20.8147H173.892V25.1397C173.892 25.696 174.066 26.1348 174.414 26.4561C174.769 26.7695 175.218 26.9262 175.759 26.9262C176.161 26.9262 176.575 26.8361 177 26.6559V29.4295C176.265 29.7195 175.542 29.8644 174.831 29.8644C173.455 29.8644 172.395 29.4922 171.653 28.7479C170.919 27.9957 170.551 26.9223 170.551 25.5276V20.8147H168.637V17.8764Z" fill="#07345E"/>
</svg>
