<svg xmlns="http://www.w3.org/2000/svg" width="175.162" height="49" viewBox="0 0 175.162 49">
  <g id="Group_733" data-name="Group 733" transform="translate(-348.589 -37)">
    <rect id="Rectangle_328" data-name="Rectangle 328" width="34.648" height="34.648" rx="6" transform="translate(348.589 61.5) rotate(-45)" fill="#30d2ef"/>
    <g id="Group_414" data-name="Group 414" transform="translate(359.14 46.742)">
      <g id="Group_354" data-name="Group 354" transform="translate(44.735 6.394)">
        <path id="Path_704" data-name="Path 704" d="M746.717,1452.631a3.947,3.947,0,0,1-.357-1.193,4.3,4.3,0,0,1-3.359,1.439,4.725,4.725,0,0,1-3.242-1.132,3.64,3.64,0,0,1-1.286-2.854,3.763,3.763,0,0,1,1.568-3.248,7.743,7.743,0,0,1,4.533-1.144h1.636v-.763a2.194,2.194,0,0,0-.474-1.476,1.863,1.863,0,0,0-1.495-.554,2.119,2.119,0,0,0-1.409.431,1.463,1.463,0,0,0-.51,1.181H738.77a3.571,3.571,0,0,1,.714-2.141,4.716,4.716,0,0,1,2.017-1.544,7.359,7.359,0,0,1,2.928-.56,5.809,5.809,0,0,1,3.906,1.237,4.325,4.325,0,0,1,1.446,3.475v5.77a6.36,6.36,0,0,0,.529,2.867v.209Zm-2.94-2.473a3.065,3.065,0,0,0,1.452-.351,2.3,2.3,0,0,0,.984-.941v-2.288h-1.329q-2.67,0-2.842,1.845l-.012.209a1.423,1.423,0,0,0,.467,1.095A1.816,1.816,0,0,0,743.777,1450.158Z" transform="translate(-738.475 -1436.047)" fill="#30d2ef"/>
        <path id="Path_705" data-name="Path 705" d="M838.209,1452.648a4.459,4.459,0,0,1-3.642,1.6,4.2,4.2,0,0,1-3.266-1.23,5.252,5.252,0,0,1-1.15-3.6v-8.723h3.556v8.61q0,2.081,1.894,2.081a2.567,2.567,0,0,0,2.485-1.256v-9.434h3.568V1454h-3.346Z" transform="translate(-816.2 -1437.418)" fill="#30d2ef"/>
        <path id="Path_706" data-name="Path 706" d="M920.7,1419.186v3.272h2.276v2.608H920.7v6.643a1.586,1.586,0,0,0,.283,1.058,1.42,1.42,0,0,0,1.083.32,5.7,5.7,0,0,0,1.046-.086v2.694a7.316,7.316,0,0,1-2.153.32q-3.74,0-3.814-3.777v-7.172H915.2v-2.608h1.944v-3.272Z" transform="translate(-888.306 -1419.186)" fill="#30d2ef"/>
        <path id="Path_707" data-name="Path 707" d="M973.246,1445.853a7.894,7.894,0,0,1,.763-3.531,5.584,5.584,0,0,1,2.2-2.4,6.407,6.407,0,0,1,3.328-.849,6.064,6.064,0,0,1,4.4,1.648,6.617,6.617,0,0,1,1.9,4.478l.025.911a6.959,6.959,0,0,1-1.71,4.915,6.628,6.628,0,0,1-9.184.006,7.081,7.081,0,0,1-1.716-5.019Zm3.555.252a4.977,4.977,0,0,0,.714,2.9,2.564,2.564,0,0,0,4.06.012,5.445,5.445,0,0,0,.726-3.173,4.925,4.925,0,0,0-.726-2.883,2.359,2.359,0,0,0-2.042-1.023,2.321,2.321,0,0,0-2.018,1.016A5.537,5.537,0,0,0,976.8,1446.1Z" transform="translate(-937.519 -1436.047)" fill="#30d2ef"/>
      </g>
      <g id="Group_353" data-name="Group 353" transform="translate(95.618 4.819)">
        <path id="Path_708" data-name="Path 708" d="M1079.28,1441.362a6.856,6.856,0,0,0-1.12-.086,3,3,0,0,0-3.038,1.907v9.448h-2.276V1439.32h2.215l.037,1.538a3.544,3.544,0,0,1,3.174-1.784,2.328,2.328,0,0,1,1.009.172Z" transform="translate(-1072.846 -1434.473)" fill="#07345e"/>
        <path id="Path_709" data-name="Path 709" d="M1129.637,1452.877a5.814,5.814,0,0,1-4.4-1.778,6.6,6.6,0,0,1-1.7-4.755v-.418a7.985,7.985,0,0,1,.757-3.537,5.906,5.906,0,0,1,2.116-2.436,5.326,5.326,0,0,1,2.947-.88,4.985,4.985,0,0,1,4.035,1.71,7.4,7.4,0,0,1,1.44,4.9v.947h-9.018a4.731,4.731,0,0,0,1.15,3.18,3.615,3.615,0,0,0,2.8,1.212,3.968,3.968,0,0,0,2.042-.492,5.143,5.143,0,0,0,1.464-1.3l1.39,1.083A5.59,5.59,0,0,1,1129.637,1452.877Zm-.283-11.934a3.037,3.037,0,0,0-2.313,1,4.871,4.871,0,0,0-1.156,2.811h6.668v-.172a4.339,4.339,0,0,0-.935-2.688A2.859,2.859,0,0,0,1129.354,1440.944Z" transform="translate(-1115.822 -1434.473)" fill="#07345e"/>
        <path id="Path_710" data-name="Path 710" d="M1217.1,1451.02a3.276,3.276,0,0,0,2.128-.738,2.6,2.6,0,0,0,1.009-1.845h2.153a4.128,4.128,0,0,1-.787,2.177,5.185,5.185,0,0,1-1.938,1.649,5.59,5.59,0,0,1-2.565.615,5.483,5.483,0,0,1-4.324-1.815,7.228,7.228,0,0,1-1.606-4.964v-.381a8.012,8.012,0,0,1,.714-3.457,5.435,5.435,0,0,1,2.048-2.35,5.82,5.82,0,0,1,3.156-.837,5.337,5.337,0,0,1,3.721,1.341,4.791,4.791,0,0,1,1.581,3.481h-2.153a3.137,3.137,0,0,0-.978-2.123,3.043,3.043,0,0,0-2.171-.83,3.185,3.185,0,0,0-2.688,1.249,5.863,5.863,0,0,0-.954,3.611v.431a5.749,5.749,0,0,0,.947,3.543A3.2,3.2,0,0,0,1217.1,1451.02Z" transform="translate(-1190.12 -1434.473)" fill="#07345e"/>
        <path id="Path_711" data-name="Path 711" d="M1308.151,1441.362a6.85,6.85,0,0,0-1.119-.086,3,3,0,0,0-3.039,1.907v9.448h-2.276V1439.32h2.214l.037,1.538a3.545,3.545,0,0,1,3.174-1.784,2.328,2.328,0,0,1,1.009.172Z" transform="translate(-1266.888 -1434.473)" fill="#07345e"/>
        <path id="Path_712" data-name="Path 712" d="M1365.685,1452.685a4.833,4.833,0,0,1-3.9,1.562,4.139,4.139,0,0,1-3.242-1.236,5.352,5.352,0,0,1-1.126-3.66v-8.661h2.276v8.6q0,3.027,2.461,3.027a3.407,3.407,0,0,0,3.469-1.944v-9.682h2.276V1454h-2.165Z" transform="translate(-1314.113 -1435.843)" fill="#07345e"/>
        <path id="Path_713" data-name="Path 713" d="M1449.1,1410.155a1.358,1.358,0,0,1,.338-.935,1.27,1.27,0,0,1,1-.381,1.29,1.29,0,0,1,1.009.381,1.345,1.345,0,0,1,.345.935,1.3,1.3,0,0,1-.345.923,1.314,1.314,0,0,1-1.009.369,1.293,1.293,0,0,1-1-.369A1.312,1.312,0,0,1,1449.1,1410.155Zm2.46,16.842h-2.276v-13.312h2.276Z" transform="translate(-1391.84 -1408.838)" fill="#07345e"/>
        <path id="Path_714" data-name="Path 714" d="M1483.3,1419.51v3.223h2.485v1.76H1483.3v8.265a1.847,1.847,0,0,0,.332,1.2,1.4,1.4,0,0,0,1.132.4,5.5,5.5,0,0,0,1.083-.148v1.835a6.634,6.634,0,0,1-1.747.245,2.834,2.834,0,0,1-2.3-.923,3.963,3.963,0,0,1-.775-2.62v-8.255H1478.6v-1.76h2.424v-3.223Z" transform="translate(-1416.857 -1417.886)" fill="#07345e"/>
      </g>
      <g id="Group_325" data-name="Group 325" transform="translate(0)">
        <path id="Path_715" data-name="Path 715" d="M663.662,1449.94a12.032,12.032,0,0,1-.09,1.444,2.787,2.787,0,0,1,.443.131,12.459,12.459,0,0,0,.1-1.575,12.327,12.327,0,0,0-.8-4.369,2.825,2.825,0,0,1-.381.271A11.908,11.908,0,0,1,663.662,1449.94Z" transform="translate(-637.723 -1435.162)" fill="none" stroke="#07345e" stroke-width="1"/>
        <path id="Path_716" data-name="Path 716" d="M539.484,1395.475a2.794,2.794,0,0,1-.024-.349c0-.039,0-.076.006-.114a12.373,12.373,0,0,0-5.607,2.993,2.83,2.83,0,0,1,.4.237A11.907,11.907,0,0,1,539.484,1395.475Z" transform="translate(-528.285 -1392.297)" fill="none" stroke="#07345e" stroke-width="1"/>
        <path id="Path_717" data-name="Path 717" d="M508.288,1449.535a11.906,11.906,0,0,1,.743-4.151,2.837,2.837,0,0,1-.373-.291,12.3,12.3,0,0,0-.7,6.159,2.822,2.822,0,0,1,.442-.141A12.029,12.029,0,0,1,508.288,1449.535Z" transform="translate(-506.218 -1434.756)" fill="none" stroke="#07345e" stroke-width="1"/>
        <path id="Path_718" data-name="Path 718" d="M607.693,1395.475a11.91,11.91,0,0,1,5.269,2.813,2.864,2.864,0,0,1,.393-.248,12.373,12.373,0,0,0-5.644-3.028c0,.038.006.075.006.114A2.841,2.841,0,0,1,607.693,1395.475Z" transform="translate(-590.883 -1392.297)" fill="none" stroke="#07345e" stroke-width="1"/>
        <path id="Path_719" data-name="Path 719" d="M522.477,1518.965a2.775,2.775,0,0,1-.42.188,12.477,12.477,0,0,0,4.671,4.084q.063-.222.142-.436A11.984,11.984,0,0,1,522.477,1518.965Z" transform="translate(-518.279 -1497.387)" fill="none" stroke="#07345e" stroke-width="1"/>
        <path id="Path_720" data-name="Path 720" d="M624.486,1522.149c.05.144.1.29.134.44a12.477,12.477,0,0,0,4.812-4.234,2.836,2.836,0,0,1-.414-.191A11.984,11.984,0,0,1,624.486,1522.149Z" transform="translate(-605.121 -1496.708)" fill="none" stroke="#07345e" stroke-width="1"/>
        <path id="Path_721" data-name="Path 721" d="M612.1,1401.174a2.839,2.839,0,0,1,.348-.307,11.907,11.907,0,0,0-5.269-2.813,2.783,2.783,0,0,1-.093.448A11.463,11.463,0,0,1,612.1,1401.174Z" transform="translate(-590.368 -1394.877)" fill="none" stroke="#07345e" stroke-width="1"/>
        <path id="Path_722" data-name="Path 722" d="M623.377,1520.276q.092.211.169.431a11.984,11.984,0,0,0,4.532-3.985,2.818,2.818,0,0,1-.382-.259A11.554,11.554,0,0,1,623.377,1520.276Z" transform="translate(-604.18 -1495.265)" fill="none" stroke="#07345e" stroke-width="1"/>
        <path id="Path_723" data-name="Path 723" d="M511.287,1451.153a11.426,11.426,0,0,1,.694-3.931,2.815,2.815,0,0,1-.407-.22,11.889,11.889,0,0,0-.636,5.727,2.81,2.81,0,0,1,.452-.069A11.54,11.54,0,0,1,511.287,1451.153Z" transform="translate(-508.761 -1436.375)" fill="none" stroke="#07345e" stroke-width="1"/>
        <path id="Path_724" data-name="Path 724" d="M541.828,1398.5a2.8,2.8,0,0,1-.093-.448,11.9,11.9,0,0,0-5.221,2.768,2.841,2.841,0,0,1,.359.3A11.463,11.463,0,0,1,541.828,1398.5Z" transform="translate(-530.536 -1394.877)" fill="none" stroke="#07345e" stroke-width="1"/>
        <path id="Path_725" data-name="Path 725" d="M525.2,1517.276a2.781,2.781,0,0,1-.383.257,11.981,11.981,0,0,0,4.393,3.836q.08-.218.177-.426A11.556,11.556,0,0,1,525.2,1517.276Z" transform="translate(-520.62 -1495.955)" fill="none" stroke="#07345e" stroke-width="1"/>
        <path id="Path_726" data-name="Path 726" d="M660.894,1451.451a11.526,11.526,0,0,1-.088,1.394,2.81,2.81,0,0,1,.454.051,11.887,11.887,0,0,0-.632-5.542,2.767,2.767,0,0,1-.415.2A11.427,11.427,0,0,1,660.894,1451.451Z" transform="translate(-635.411 -1436.673)" fill="none" stroke="#07345e" stroke-width="1"/>
        <path id="Path_727" data-name="Path 727" d="M500.059,1490.546a2.371,2.371,0,0,1-1.019-4.513c-.028-.156-.053-.311-.075-.469a2.827,2.827,0,0,0,2.043,5.271c-.088-.129-.173-.26-.257-.393A2.363,2.363,0,0,1,500.059,1490.546Z" transform="translate(-497.23 -1469.07)" fill="none" stroke="#07345e" stroke-width="1"/>
        <path id="Path_728" data-name="Path 728" d="M517.531,1486.945a2.832,2.832,0,0,0-2.829-2.829c-.068,0-.134.005-.2.01.02.152.043.3.069.453.044,0,.087-.007.132-.007a2.372,2.372,0,0,1,1.5,4.21c.082.128.165.255.252.379A2.824,2.824,0,0,0,517.531,1486.945Z" transform="translate(-511.873 -1467.841)" fill="none" stroke="#07345e" stroke-width="1"/>
        <path id="Path_729" data-name="Path 729" d="M520.8,1516.464a2.347,2.347,0,0,1-.424.176c.083.132.168.264.256.393a2.878,2.878,0,0,0,.42-.188C520.962,1516.72,520.878,1516.593,520.8,1516.464Z" transform="translate(-516.85 -1495.266)" fill="none" stroke="#07345e" stroke-width="1"/>
        <path id="Path_730" data-name="Path 730" d="M509.141,1485.089q-.038-.225-.068-.453a2.807,2.807,0,0,0-.442.141c.022.157.048.313.075.468A2.348,2.348,0,0,1,509.141,1485.089Z" transform="translate(-506.896 -1468.282)" fill="none" stroke="#07345e" stroke-width="1"/>
        <path id="Path_731" data-name="Path 731" d="M523.54,1514.784a2.379,2.379,0,0,1-.384.256c.082.129.166.256.253.381a2.847,2.847,0,0,0,.383-.257C523.705,1515.038,523.622,1514.912,523.54,1514.784Z" transform="translate(-519.211 -1493.842)" fill="none" stroke="#07345e" stroke-width="1"/>
        <path id="Path_732" data-name="Path 732" d="M511.985,1484.183a2.836,2.836,0,0,0-.452.069c.02.152.043.3.068.453a2.376,2.376,0,0,1,.452-.069Q512.014,1484.411,511.985,1484.183Z" transform="translate(-509.356 -1467.898)" fill="none" stroke="#07345e" stroke-width="1"/>
        <path id="Path_733" data-name="Path 733" d="M502.6,1492.7a1.915,1.915,0,0,1-.928-3.592c-.034-.154-.064-.309-.091-.465a2.371,2.371,0,0,0,1.711,4.409q-.127-.2-.246-.408A1.915,1.915,0,0,1,502.6,1492.7Z" transform="translate(-499.774 -1471.68)" fill="none" stroke="#07345e" stroke-width="1"/>
        <path id="Path_734" data-name="Path 734" d="M517.459,1489.489a2.372,2.372,0,0,0-2.372-2.373c-.045,0-.088,0-.132.006.026.152.054.3.086.452l.046,0a1.914,1.914,0,0,1,1.258,3.358q.117.2.242.4A2.367,2.367,0,0,0,517.459,1489.489Z" transform="translate(-512.257 -1470.385)" fill="none" stroke="#07345e" stroke-width="1"/>
        <path id="Path_735" data-name="Path 735" d="M518.754,1514.052q.119.206.246.408a2.348,2.348,0,0,0,.424-.176q-.124-.193-.24-.391A1.906,1.906,0,0,1,518.754,1514.052Z" transform="translate(-515.479 -1493.087)" fill="none" stroke="#07345e" stroke-width="1"/>
        <path id="Path_736" data-name="Path 736" d="M509.644,1488.062c-.031-.149-.058-.3-.084-.45a2.357,2.357,0,0,0-.435.157c.028.156.058.311.092.465A1.9,1.9,0,0,1,509.644,1488.062Z" transform="translate(-507.315 -1470.805)" fill="none" stroke="#07345e" stroke-width="1"/>
        <path id="Path_737" data-name="Path 737" d="M521.96,1512.183a1.926,1.926,0,0,1-.382.26q.116.2.24.391a2.393,2.393,0,0,0,.384-.256Q522.077,1512.383,521.96,1512.183Z" transform="translate(-517.873 -1491.637)" fill="none" stroke="#07345e" stroke-width="1"/>
        <path id="Path_738" data-name="Path 738" d="M512.521,1487.612c-.032-.149-.06-.3-.086-.452a2.375,2.375,0,0,0-.452.069c.026.15.053.3.084.449A1.923,1.923,0,0,1,512.521,1487.612Z" transform="translate(-509.737 -1470.422)" fill="none" stroke="#07345e" stroke-width="1"/>
        <path id="Path_739" data-name="Path 739" d="M658.971,1484.634c-.02.155-.041.309-.067.462a2.373,2.373,0,0,1-1.662,4.439c-.082.133-.166.263-.252.393a2.826,2.826,0,0,0,1.981-5.294Z" transform="translate(-632.678 -1468.28)" fill="none" stroke="#07345e" stroke-width="1"/>
        <path id="Path_740" data-name="Path 740" d="M645.274,1486.232a2.373,2.373,0,0,1,2.373-2.373l.044,0c.024-.15.045-.3.063-.453-.036,0-.071-.006-.107-.006a2.827,2.827,0,0,0-1.773,5.031c.085-.126.167-.255.248-.385A2.367,2.367,0,0,1,645.274,1486.232Z" transform="translate(-622.358 -1467.236)" fill="none" stroke="#07345e" stroke-width="1"/>
        <path id="Path_741" data-name="Path 741" d="M654.515,1515.648c-.08.129-.161.257-.246.383a2.822,2.822,0,0,0,.414.191q.13-.194.252-.393A2.38,2.38,0,0,1,654.515,1515.648Z" transform="translate(-630.371 -1494.575)" fill="none" stroke="#07345e" stroke-width="1"/>
        <path id="Path_742" data-name="Path 742" d="M666.688,1484.227a2.373,2.373,0,0,1,.438.14c.025-.153.047-.307.067-.462a2.831,2.831,0,0,0-.443-.131C666.732,1483.925,666.712,1484.076,666.688,1484.227Z" transform="translate(-640.9 -1467.55)" fill="none" stroke="#07345e" stroke-width="1"/>
        <path id="Path_743" data-name="Path 743" d="M663.7,1483.892a2.375,2.375,0,0,1,.455.051c.024-.15.044-.3.062-.454a2.8,2.8,0,0,0-.454-.051C663.742,1483.591,663.721,1483.742,663.7,1483.892Z" transform="translate(-638.365 -1467.267)" fill="none" stroke="#07345e" stroke-width="1"/>
        <path id="Path_744" data-name="Path 744" d="M651.76,1514.316a2.825,2.825,0,0,0,.382.259c.085-.125.166-.254.246-.383a2.362,2.362,0,0,1-.38-.261C651.927,1514.061,651.846,1514.19,651.76,1514.316Z" transform="translate(-628.244 -1493.119)" fill="none" stroke="#07345e" stroke-width="1"/>
        <path id="Path_745" data-name="Path 745" d="M661.288,1489.851a1.908,1.908,0,0,1-2.4,1.851c-.077.137-.156.274-.238.408a2.372,2.372,0,0,0,1.662-4.439c-.026.156-.052.312-.084.466A1.917,1.917,0,0,1,661.288,1489.851Z" transform="translate(-634.083 -1470.855)" fill="none" stroke="#07345e" stroke-width="1"/>
        <path id="Path_746" data-name="Path 746" d="M648.274,1488.775a1.917,1.917,0,0,1,1.878-1.914c.031-.151.057-.3.082-.456l-.044,0a2.372,2.372,0,0,0-1.525,4.19c.082-.132.16-.266.237-.4A1.91,1.91,0,0,1,648.274,1488.775Z" transform="translate(-624.902 -1469.78)" fill="none" stroke="#07345e" stroke-width="1"/>
        <path id="Path_747" data-name="Path 747" d="M656.118,1513.066c-.076.132-.153.264-.233.393a2.381,2.381,0,0,0,.42.181c.082-.134.161-.271.238-.408A1.9,1.9,0,0,1,656.118,1513.066Z" transform="translate(-631.741 -1492.386)" fill="none" stroke="#07345e" stroke-width="1"/>
        <path id="Path_748" data-name="Path 748" d="M666.16,1487.205a1.914,1.914,0,0,1,.434.155c.032-.154.058-.31.084-.466a2.353,2.353,0,0,0-.438-.139Q666.2,1486.982,666.16,1487.205Z" transform="translate(-640.453 -1470.079)" fill="none" stroke="#07345e" stroke-width="1"/>
        <path id="Path_749" data-name="Path 749" d="M663.16,1486.874l.038,0a1.931,1.931,0,0,1,.419.047q.045-.224.08-.45a2.385,2.385,0,0,0-.455-.051C663.217,1486.571,663.191,1486.723,663.16,1486.874Z" transform="translate(-637.909 -1469.793)" fill="none" stroke="#07345e" stroke-width="1"/>
        <path id="Path_750" data-name="Path 750" d="M653.625,1511.29c-.077.135-.155.27-.237.4a2.4,2.4,0,0,0,.38.261c.08-.129.158-.26.233-.393A1.909,1.909,0,0,1,653.625,1511.29Z" transform="translate(-629.624 -1490.88)" fill="none" stroke="#07345e" stroke-width="1"/>
        <path id="Path_751" data-name="Path 751" d="M507.669,1415.647a2.369,2.369,0,0,1,3.244-2.205c.116-.116.234-.229.354-.34a2.824,2.824,0,0,0-3.134,4.628c.059-.153.12-.305.185-.456A2.362,2.362,0,0,1,507.669,1415.647Z" transform="translate(-505.694 -1407.393)" fill="none" stroke="#07345e" stroke-width="1"/>
        <path id="Path_752" data-name="Path 752" d="M522.347,1420.217a2.819,2.819,0,0,0-.84-2.009c-.113.1-.223.207-.332.313a2.371,2.371,0,0,1-2.618,3.865c-.058.141-.115.282-.167.425a2.826,2.826,0,0,0,3.957-2.593Z" transform="translate(-515.17 -1411.963)" fill="none" stroke="#07345e" stroke-width="1"/>
        <path id="Path_753" data-name="Path 753" d="M513.806,1442.411a2.353,2.353,0,0,1-.36-.312c-.065.15-.126.3-.185.456a2.833,2.833,0,0,0,.373.291Q513.716,1442.626,513.806,1442.411Z" transform="translate(-510.822 -1432.218)" fill="none" stroke="#07345e" stroke-width="1"/>
        <path id="Path_754" data-name="Path 754" d="M531.53,1415.021a2.4,2.4,0,0,1,.422.217c.11-.108.222-.216.337-.321a2.831,2.831,0,0,0-.4-.238C531.764,1414.792,531.646,1414.9,531.53,1415.021Z" transform="translate(-526.31 -1408.972)" fill="none" stroke="#07345e" stroke-width="1"/>
        <path id="Path_755" data-name="Path 755" d="M535,1416.539a2.851,2.851,0,0,0-.359-.3c-.115.1-.226.212-.337.321a2.364,2.364,0,0,1,.364.291C534.776,1416.746,534.886,1416.641,535,1416.539Z" transform="translate(-528.661 -1410.294)" fill="none" stroke="#07345e" stroke-width="1"/>
        <path id="Path_756" data-name="Path 756" d="M516.288,1444.381a2.363,2.363,0,0,1-.4-.229q-.09.215-.171.433a2.816,2.816,0,0,0,.407.22C516.174,1444.662,516.231,1444.521,516.288,1444.381Z" transform="translate(-512.901 -1433.959)" fill="none" stroke="#07345e" stroke-width="1"/>
        <path id="Path_757" data-name="Path 757" d="M510.669,1418.191a1.911,1.911,0,0,1,2.44-1.841q.17-.186.347-.364a2.37,2.37,0,0,0-2.6,3.832c.067-.155.135-.308.208-.459A1.9,1.9,0,0,1,510.669,1418.191Z" transform="translate(-508.236 -1409.937)" fill="none" stroke="#07345e" stroke-width="1"/>
        <path id="Path_758" data-name="Path 758" d="M522.823,1421.958a2.364,2.364,0,0,0-.716-1.7c-.109.106-.216.215-.321.326a1.914,1.914,0,0,1-2.114,3.12c-.063.138-.125.278-.183.419a2.371,2.371,0,0,0,3.334-2.168Z" transform="translate(-516.102 -1413.704)" fill="none" stroke="#07345e" stroke-width="1"/>
        <path id="Path_759" data-name="Path 759" d="M514.683,1439.08c-.073.151-.141.3-.208.459a2.375,2.375,0,0,0,.36.312c.06-.144.124-.287.19-.428A1.93,1.93,0,0,1,514.683,1439.08Z" transform="translate(-511.851 -1429.658)" fill="none" stroke="#07345e" stroke-width="1"/>
        <path id="Path_760" data-name="Path 760" d="M529.691,1417.472c.107-.114.216-.226.327-.336a2.338,2.338,0,0,0-.422-.218q-.177.178-.347.364A1.879,1.879,0,0,1,529.691,1417.472Z" transform="translate(-524.376 -1410.869)" fill="none" stroke="#07345e" stroke-width="1"/>
        <path id="Path_761" data-name="Path 761" d="M517.425,1441.576a1.9,1.9,0,0,1-.4-.239c-.066.142-.13.284-.19.428a2.358,2.358,0,0,0,.4.229C517.3,1441.854,517.361,1441.714,517.425,1441.576Z" transform="translate(-513.854 -1431.572)" fill="none" stroke="#07345e" stroke-width="1"/>
        <path id="Path_762" data-name="Path 762" d="M532.153,1418.684a1.915,1.915,0,0,1,.37.281q.157-.166.321-.326a2.385,2.385,0,0,0-.364-.291C532.369,1418.457,532.26,1418.57,532.153,1418.684Z" transform="translate(-526.839 -1412.081)" fill="none" stroke="#07345e" stroke-width="1"/>
        <path id="Path_763" data-name="Path 763" d="M645.246,1413.474a2.371,2.371,0,0,1,2.6,3.877c.063.149.121.3.179.452a2.826,2.826,0,0,0-3.127-4.666C645.016,1413.247,645.133,1413.359,645.246,1413.474Z" transform="translate(-622.426 -1407.393)" fill="none" stroke="#07345e" stroke-width="1"/>
        <path id="Path_764" data-name="Path 764" d="M637.665,1423.338a2.8,2.8,0,0,0,1.033-.2c-.052-.143-.108-.284-.165-.424a2.37,2.37,0,0,1-2.577-3.849c-.108-.107-.217-.212-.329-.314a2.826,2.826,0,0,0,2.039,4.786Z" transform="translate(-613.896 -1412.254)" fill="none" stroke="#07345e" stroke-width="1"/>
        <path id="Path_765" data-name="Path 765" d="M661.829,1442.894c.058.142.116.285.169.429a2.826,2.826,0,0,0,.381-.271c-.057-.152-.116-.3-.179-.452A2.394,2.394,0,0,1,661.829,1442.894Z" transform="translate(-636.781 -1432.643)" fill="none" stroke="#07345e" stroke-width="1"/>
        <path id="Path_766" data-name="Path 766" d="M642.651,1415.474a2.381,2.381,0,0,1,.407-.229c-.114-.115-.23-.227-.348-.337a2.836,2.836,0,0,0-.393.248Q642.487,1415.312,642.651,1415.474Z" transform="translate(-620.238 -1409.165)" fill="none" stroke="#07345e" stroke-width="1"/>
        <path id="Path_767" data-name="Path 767" d="M640.031,1416.845c.112.1.221.207.329.314a2.377,2.377,0,0,1,.352-.3q-.164-.162-.334-.318A2.844,2.844,0,0,0,640.031,1416.845Z" transform="translate(-618.3 -1410.547)" fill="none" stroke="#07345e" stroke-width="1"/>
        <path id="Path_768" data-name="Path 768" d="M659.293,1445.164a2.837,2.837,0,0,0,.415-.2c-.053-.145-.111-.288-.169-.43a2.384,2.384,0,0,1-.411.21C659.185,1444.88,659.241,1445.021,659.293,1445.164Z" transform="translate(-634.491 -1434.278)" fill="none" stroke="#07345e" stroke-width="1"/>
        <path id="Path_769" data-name="Path 769" d="M648.137,1416.275a1.913,1.913,0,0,1,1.446,3.169c.07.149.139.3.2.45a2.371,2.371,0,0,0-2.6-3.876c.116.117.23.236.341.358A1.909,1.909,0,0,1,648.137,1416.275Z" transform="translate(-624.367 -1409.937)" fill="none" stroke="#07345e" stroke-width="1"/>
        <path id="Path_770" data-name="Path 770" d="M640.209,1424.63a2.365,2.365,0,0,0,.868-.166c-.058-.142-.119-.281-.182-.42a1.913,1.913,0,0,1-2.077-3.1c-.1-.111-.21-.221-.319-.329a2.371,2.371,0,0,0,1.709,4.016Z" transform="translate(-616.439 -1414.003)" fill="none" stroke="#07345e" stroke-width="1"/>
        <path id="Path_771" data-name="Path 771" d="M644.832,1417.689a1.909,1.909,0,0,1,.427-.205c-.111-.122-.226-.241-.341-.358a2.363,2.363,0,0,0-.407.229C644.62,1417.464,644.726,1417.576,644.832,1417.689Z" transform="translate(-622.097 -1411.045)" fill="none" stroke="#07345e" stroke-width="1"/>
        <path id="Path_772" data-name="Path 772" d="M660.611,1439.963c.064.141.126.282.185.425a2.387,2.387,0,0,0,.372-.294c-.065-.152-.134-.3-.2-.45A1.929,1.929,0,0,1,660.611,1439.963Z" transform="translate(-635.748 -1430.137)" fill="none" stroke="#07345e" stroke-width="1"/>
        <path id="Path_773" data-name="Path 773" d="M642.194,1418.932c.109.107.214.217.319.329a1.9,1.9,0,0,1,.356-.3c-.106-.114-.212-.226-.322-.335A2.369,2.369,0,0,0,642.194,1418.932Z" transform="translate(-620.134 -1412.321)" fill="none" stroke="#07345e" stroke-width="1"/>
        <path id="Path_774" data-name="Path 774" d="M657.935,1441.951c.063.139.124.278.182.42a2.348,2.348,0,0,0,.411-.21c-.059-.143-.121-.284-.185-.425A1.9,1.9,0,0,1,657.935,1441.951Z" transform="translate(-633.479 -1431.911)" fill="none" stroke="#07345e" stroke-width="1"/>
        <path id="Path_775" data-name="Path 775" d="M573.529,1377.625a2.372,2.372,0,0,1,2.362,2.159c.155.03.309.064.462.1a2.825,2.825,0,0,0-5.647,0c.153-.036.306-.07.461-.1A2.372,2.372,0,0,1,573.529,1377.625Z" transform="translate(-559.525 -1377.169)" fill="none" stroke="#07345e" stroke-width="1"/>
        <path id="Path_776" data-name="Path 776" d="M574.146,1402.472a2.833,2.833,0,0,0,2.713-2.032c-.147-.036-.3-.07-.445-.1a2.373,2.373,0,0,1-4.536,0c-.149.03-.3.065-.445.1A2.833,2.833,0,0,0,574.146,1402.472Z" transform="translate(-560.141 -1396.814)" fill="none" stroke="#07345e" stroke-width="1"/>
        <path id="Path_777" data-name="Path 777" d="M570.692,1394.919c.148-.036.3-.07.446-.1a2.415,2.415,0,0,1-.013-.249c0-.072,0-.143.011-.214-.155.03-.309.064-.462.1,0,.038-.006.076-.006.114A2.8,2.8,0,0,0,570.692,1394.919Z" transform="translate(-559.493 -1391.74)" fill="none" stroke="#07345e" stroke-width="1"/>
        <path id="Path_778" data-name="Path 778" d="M604.776,1394.57a2.381,2.381,0,0,1-.013.249c.15.03.3.065.446.1a2.868,2.868,0,0,0,.024-.349c0-.038,0-.076-.006-.114-.153-.036-.306-.07-.461-.1C604.772,1394.426,604.776,1394.5,604.776,1394.57Z" transform="translate(-588.399 -1391.74)" fill="none" stroke="#07345e" stroke-width="1"/>
        <path id="Path_779" data-name="Path 779" d="M571.362,1397.842a2.362,2.362,0,0,1-.091-.448c-.15.03-.3.065-.446.1a2.812,2.812,0,0,0,.093.448C571.065,1397.907,571.213,1397.872,571.362,1397.842Z" transform="translate(-559.625 -1394.316)" fill="none" stroke="#07345e" stroke-width="1"/>
        <path id="Path_780" data-name="Path 780" d="M604.608,1397.943a2.8,2.8,0,0,0,.093-.448c-.148-.036-.3-.07-.446-.1a2.348,2.348,0,0,1-.091.448C604.313,1397.872,604.461,1397.907,604.608,1397.943Z" transform="translate(-587.891 -1394.316)" fill="none" stroke="#07345e" stroke-width="1"/>
        <path id="Path_781" data-name="Path 781" d="M576.1,1380.625a1.917,1.917,0,0,1,1.89,1.618c.158.024.315.054.471.085a2.371,2.371,0,0,0-4.724,0c.156-.03.313-.06.471-.085A1.917,1.917,0,0,1,576.1,1380.625Z" transform="translate(-562.096 -1379.712)" fill="none" stroke="#07345e" stroke-width="1"/>
        <path id="Path_782" data-name="Path 782" d="M576.622,1401.561a2.374,2.374,0,0,0,2.268-1.676q-.226-.046-.456-.081a1.914,1.914,0,0,1-3.626,0c-.153.024-.3.051-.455.081A2.373,2.373,0,0,0,576.622,1401.561Z" transform="translate(-562.618 -1396.36)" fill="none" stroke="#07345e" stroke-width="1"/>
        <path id="Path_783" data-name="Path 783" d="M601.707,1394.1c0,.057,0,.112-.008.168.151.025.3.051.452.081a2.407,2.407,0,0,0,.013-.249c0-.072,0-.143-.011-.214-.156-.03-.313-.06-.471-.084A1.907,1.907,0,0,1,601.707,1394.1Z" transform="translate(-585.786 -1391.27)" fill="none" stroke="#07345e" stroke-width="1"/>
        <path id="Path_784" data-name="Path 784" d="M574.125,1394.1a1.93,1.93,0,0,1,.026-.3c-.158.024-.315.054-.471.084-.007.07-.011.141-.011.214a2.408,2.408,0,0,0,.013.249c.15-.03.3-.056.452-.081C574.128,1394.212,574.125,1394.156,574.125,1394.1Z" transform="translate(-562.036 -1391.27)" fill="none" stroke="#07345e" stroke-width="1"/>
        <path id="Path_785" data-name="Path 785" d="M601.171,1397.311c.153.024.3.051.455.082a2.364,2.364,0,0,0,.091-.448c-.15-.03-.3-.056-.452-.081A1.89,1.89,0,0,1,601.171,1397.311Z" transform="translate(-585.354 -1393.867)" fill="none" stroke="#07345e" stroke-width="1"/>
        <path id="Path_786" data-name="Path 786" d="M574.3,1397.311a1.9,1.9,0,0,1-.095-.448c-.152.025-.3.051-.452.081a2.354,2.354,0,0,0,.091.448C574,1397.363,574.148,1397.336,574.3,1397.311Z" transform="translate(-562.109 -1393.867)" fill="none" stroke="#07345e" stroke-width="1"/>
        <path id="Path_787" data-name="Path 787" d="M563.221,1443.477a4.674,4.674,0,1,0,4.674,4.673A4.679,4.679,0,0,0,563.221,1443.477Zm0,8.891a4.217,4.217,0,1,1,4.217-4.217A4.217,4.217,0,0,1,563.221,1452.368Z" transform="translate(-549.216 -1433.386)" fill="none" stroke="#07345e" stroke-width="1"/>
        <path id="Path_788" data-name="Path 788" d="M565.764,1446.476a4.217,4.217,0,1,0,4.217,4.217A4.217,4.217,0,0,0,565.764,1446.476Zm0,7.978a3.76,3.76,0,1,1,3.761-3.76A3.765,3.765,0,0,1,565.764,1454.454Z" transform="translate(-551.76 -1435.929)" fill="none" stroke="#07345e" stroke-width="1"/>
        <path id="Path_789" data-name="Path 789" d="M622.631,1547.586l.485,2.263-.466,0,.02.093.893-.191-.485-2.263c-.018-.085-.039-.169-.06-.252q-.209.1-.422.2C622.607,1547.487,622.62,1547.536,622.631,1547.586Z" transform="translate(-603.517 -1521.358)" fill="none" stroke="#07345e" stroke-width="1"/>
        <path id="Path_790" data-name="Path 790" d="M549.907,1547.507c.02-.092.042-.182.066-.272-.141-.065-.28-.131-.418-.2-.035.124-.068.249-.1.377l-.479,2.236.893.191.021-.1-.467,0Z" transform="translate(-541.106 -1521.185)" fill="none" stroke="#07345e" stroke-width="1"/>
        <path id="Path_791" data-name="Path 791" d="M559.669,1519.2a5.765,5.765,0,0,0-4.818,3.363q.2.1.409.2a5.248,5.248,0,0,1,9.6.022q.209-.1.414-.2A5.676,5.676,0,0,0,559.669,1519.2Z" transform="translate(-546.083 -1497.574)" fill="none" stroke="#07345e" stroke-width="1"/>
        <path id="Path_792" data-name="Path 792" d="M621.754,1544.548c.049.144.091.29.128.439q.213-.1.422-.2c-.039-.15-.085-.3-.134-.439Q621.964,1544.452,621.754,1544.548Z" transform="translate(-602.804 -1518.908)" fill="none" stroke="#07345e" stroke-width="1"/>
        <path id="Path_793" data-name="Path 793" d="M553.307,1544.373q-.208-.1-.412-.2-.079.214-.142.436.207.1.418.2Q553.231,1544.587,553.307,1544.373Z" transform="translate(-544.304 -1518.758)" fill="none" stroke="#07345e" stroke-width="1"/>
        <path id="Path_794" data-name="Path 794" d="M620.658,1541.719q.092.21.167.429.21-.1.416-.2-.076-.221-.169-.431Q620.867,1541.623,620.658,1541.719Z" transform="translate(-601.875 -1516.509)" fill="none" stroke="#07345e" stroke-width="1"/>
        <path id="Path_795" data-name="Path 795" d="M553.865,1541.37q-.1.209-.177.427c.136.069.273.137.412.2q.078-.218.174-.426Q554.067,1541.474,553.865,1541.37Z" transform="translate(-545.096 -1516.382)" fill="none" stroke="#07345e" stroke-width="1"/>
        <path id="Path_796" data-name="Path 796" d="M552.887,1548.54c-.144-.06-.286-.123-.426-.187-.024.09-.047.18-.066.272l-.479,2.236.467,0,.458-2.137C552.854,1548.659,552.872,1548.6,552.887,1548.54Z" transform="translate(-543.593 -1522.303)" fill="none" stroke="#07345e" stroke-width="1"/>
        <path id="Path_797" data-name="Path 797" d="M620.259,1548.694c-.011-.05-.023-.1-.036-.15q-.211.1-.426.183c0,.021.01.041.015.063l.465,2.17.466,0Z" transform="translate(-601.146 -1522.464)" fill="none" stroke="#07345e" stroke-width="1"/>
        <path id="Path_798" data-name="Path 798" d="M561.981,1522.2a5.293,5.293,0,0,0-4.439,3.109c.138.064.278.128.419.187a4.846,4.846,0,0,1,4.049-2.84,4.779,4.779,0,0,1,4.72,2.857c.14-.058.279-.119.416-.182A5.263,5.263,0,0,0,561.981,1522.2Z" transform="translate(-548.364 -1500.12)" fill="none" stroke="#07345e" stroke-width="1"/>
        <path id="Path_799" data-name="Path 799" d="M555.636,1545.492q-.077.214-.136.435c.141.064.283.128.427.187q.056-.222.131-.435C555.916,1545.619,555.776,1545.557,555.636,1545.492Z" transform="translate(-546.633 -1519.877)" fill="none" stroke="#07345e" stroke-width="1"/>
        <path id="Path_800" data-name="Path 800" d="M619.12,1546.279q.215-.088.426-.183-.055-.224-.128-.439c-.139.063-.278.125-.419.183Q619.068,1546.055,619.12,1546.279Z" transform="translate(-600.468 -1520.017)" fill="none" stroke="#07345e" stroke-width="1"/>
        <path id="Path_801" data-name="Path 801" d="M556.99,1542.88c-.141-.059-.281-.122-.419-.186q-.1.208-.174.426c.139.065.279.128.421.187C556.87,1543.16,556.927,1543.018,556.99,1542.88Z" transform="translate(-547.393 -1517.504)" fill="none" stroke="#07345e" stroke-width="1"/>
        <path id="Path_802" data-name="Path 802" d="M617.924,1543.019q.091.209.163.429c.141-.058.281-.119.419-.183q-.074-.219-.167-.429C618.2,1542.9,618.064,1542.961,617.924,1543.019Z" transform="translate(-599.557 -1517.626)" fill="none" stroke="#07345e" stroke-width="1"/>
      </g>
    </g>
  </g>
</svg>
